ISO-10303-21;
HEADER;
/* Generated by software containing ST-Developer
 * from STEP Tools, Inc. (www.steptools.com) 
 */

FILE_DESCRIPTION(
/* description */ (''),
/* implementation_level */ '2;1');

FILE_NAME(
/* name */ 'base_mod.step',
/* time_stamp */ '2025-12-08T21:56:38+07:00',
/* author */ (''),
/* organization */ (''),
/* preprocessor_version */ 'ST-DEVELOPER v20.1',
/* originating_system */ 'Autodesk Translation Framework v14.21.0.0',
/* authorisation */ '');

FILE_SCHEMA (('AUTOMOTIVE_DESIGN { 1 0 10303 214 3 1 1 }'));
ENDSEC;

DATA;
#10=MECHANICAL_DESIGN_GEOMETRIC_PRESENTATION_REPRESENTATION('',(#13),#1131);
#11=SHAPE_REPRESENTATION_RELATIONSHIP('SRR','None',#1138,#12);
#12=ADVANCED_BREP_SHAPE_REPRESENTATION('',(#14),#1130);
#13=STYLED_ITEM('',(#1147),#14);
#14=MANIFOLD_SOLID_BREP('Body1',#673);
#15=FACE_BOUND('',#84,.T.);
#16=FACE_BOUND('',#95,.T.);
#17=FACE_BOUND('',#99,.T.);
#18=FACE_BOUND('',#103,.T.);
#19=FACE_BOUND('',#111,.T.);
#20=PLANE('',#692);
#21=PLANE('',#698);
#22=PLANE('',#699);
#23=PLANE('',#701);
#24=PLANE('',#705);
#25=PLANE('',#709);
#26=PLANE('',#713);
#27=PLANE('',#717);
#28=PLANE('',#722);
#29=PLANE('',#726);
#30=PLANE('',#731);
#31=PLANE('',#732);
#32=PLANE('',#735);
#33=PLANE('',#736);
#34=PLANE('',#737);
#35=PLANE('',#738);
#36=PLANE('',#739);
#37=PLANE('',#740);
#38=PLANE('',#741);
#39=PLANE('',#742);
#40=PLANE('',#743);
#41=PLANE('',#744);
#42=PLANE('',#745);
#43=FACE_OUTER_BOUND('',#76,.T.);
#44=FACE_OUTER_BOUND('',#77,.T.);
#45=FACE_OUTER_BOUND('',#78,.T.);
#46=FACE_OUTER_BOUND('',#79,.T.);
#47=FACE_OUTER_BOUND('',#80,.T.);
#48=FACE_OUTER_BOUND('',#81,.T.);
#49=FACE_OUTER_BOUND('',#82,.T.);
#50=FACE_OUTER_BOUND('',#83,.T.);
#51=FACE_OUTER_BOUND('',#85,.T.);
#52=FACE_OUTER_BOUND('',#86,.T.);
#53=FACE_OUTER_BOUND('',#87,.T.);
#54=FACE_OUTER_BOUND('',#88,.T.);
#55=FACE_OUTER_BOUND('',#89,.T.);
#56=FACE_OUTER_BOUND('',#90,.T.);
#57=FACE_OUTER_BOUND('',#91,.T.);
#58=FACE_OUTER_BOUND('',#92,.T.);
#59=FACE_OUTER_BOUND('',#93,.T.);
#60=FACE_OUTER_BOUND('',#94,.T.);
#61=FACE_OUTER_BOUND('',#96,.T.);
#62=FACE_OUTER_BOUND('',#97,.T.);
#63=FACE_OUTER_BOUND('',#98,.T.);
#64=FACE_OUTER_BOUND('',#100,.T.);
#65=FACE_OUTER_BOUND('',#101,.T.);
#66=FACE_OUTER_BOUND('',#102,.T.);
#67=FACE_OUTER_BOUND('',#104,.T.);
#68=FACE_OUTER_BOUND('',#105,.T.);
#69=FACE_OUTER_BOUND('',#106,.T.);
#70=FACE_OUTER_BOUND('',#107,.T.);
#71=FACE_OUTER_BOUND('',#108,.T.);
#72=FACE_OUTER_BOUND('',#109,.T.);
#73=FACE_OUTER_BOUND('',#110,.T.);
#74=FACE_OUTER_BOUND('',#112,.T.);
#75=FACE_OUTER_BOUND('',#113,.T.);
#76=EDGE_LOOP('',(#438,#439,#440,#441,#442,#443));
#77=EDGE_LOOP('',(#444,#445,#446,#447,#448,#449,#450));
#78=EDGE_LOOP('',(#451,#452,#453,#454,#455,#456));
#79=EDGE_LOOP('',(#457,#458,#459,#460,#461,#462,#463));
#80=EDGE_LOOP('',(#464,#465,#466,#467));
#81=EDGE_LOOP('',(#468,#469,#470,#471));
#82=EDGE_LOOP('',(#472,#473,#474,#475));
#83=EDGE_LOOP('',(#476,#477,#478,#479,#480,#481,#482,#483,#484,#485,#486,
#487,#488,#489,#490,#491,#492,#493,#494,#495,#496,#497,#498,#499));
#84=EDGE_LOOP('',(#500));
#85=EDGE_LOOP('',(#501,#502,#503,#504));
#86=EDGE_LOOP('',(#505,#506,#507,#508));
#87=EDGE_LOOP('',(#509,#510,#511,#512));
#88=EDGE_LOOP('',(#513,#514,#515,#516));
#89=EDGE_LOOP('',(#517,#518,#519,#520));
#90=EDGE_LOOP('',(#521,#522,#523,#524));
#91=EDGE_LOOP('',(#525,#526,#527,#528));
#92=EDGE_LOOP('',(#529,#530,#531,#532));
#93=EDGE_LOOP('',(#533,#534,#535,#536));
#94=EDGE_LOOP('',(#537,#538,#539,#540));
#95=EDGE_LOOP('',(#541));
#96=EDGE_LOOP('',(#542,#543,#544,#545,#546,#547));
#97=EDGE_LOOP('',(#548,#549,#550,#551,#552,#553,#554));
#98=EDGE_LOOP('',(#555,#556,#557,#558,#559,#560,#561,#562,#563,#564,#565,
#566,#567,#568,#569,#570,#571,#572,#573,#574,#575,#576,#577,#578));
#99=EDGE_LOOP('',(#579));
#100=EDGE_LOOP('',(#580,#581,#582,#583));
#101=EDGE_LOOP('',(#584,#585,#586,#587));
#102=EDGE_LOOP('',(#588,#589,#590,#591));
#103=EDGE_LOOP('',(#592));
#104=EDGE_LOOP('',(#593,#594,#595,#596));
#105=EDGE_LOOP('',(#597,#598,#599,#600));
#106=EDGE_LOOP('',(#601,#602,#603,#604));
#107=EDGE_LOOP('',(#605,#606,#607,#608));
#108=EDGE_LOOP('',(#609,#610,#611,#612));
#109=EDGE_LOOP('',(#613,#614,#615,#616));
#110=EDGE_LOOP('',(#617,#618,#619,#620));
#111=EDGE_LOOP('',(#621));
#112=EDGE_LOOP('',(#622,#623,#624,#625));
#113=EDGE_LOOP('',(#626,#627,#628,#629));
#114=LINE('',#941,#184);
#115=LINE('',#949,#185);
#116=LINE('',#951,#186);
#117=LINE('',#953,#187);
#118=LINE('',#955,#188);
#119=LINE('',#956,#189);
#120=LINE('',#961,#190);
#121=LINE('',#969,#191);
#122=LINE('',#971,#192);
#123=LINE('',#973,#193);
#124=LINE('',#975,#194);
#125=LINE('',#976,#195);
#126=LINE('',#982,#196);
#127=LINE('',#984,#197);
#128=LINE('',#985,#198);
#129=LINE('',#990,#199);
#130=LINE('',#993,#200);
#131=LINE('',#996,#201);
#132=LINE('',#997,#202);
#133=LINE('',#999,#203);
#134=LINE('',#1001,#204);
#135=LINE('',#1003,#205);
#136=LINE('',#1005,#206);
#137=LINE('',#1007,#207);
#138=LINE('',#1009,#208);
#139=LINE('',#1011,#209);
#140=LINE('',#1013,#210);
#141=LINE('',#1015,#211);
#142=LINE('',#1017,#212);
#143=LINE('',#1019,#213);
#144=LINE('',#1021,#214);
#145=LINE('',#1023,#215);
#146=LINE('',#1025,#216);
#147=LINE('',#1026,#217);
#148=LINE('',#1028,#218);
#149=LINE('',#1030,#219);
#150=LINE('',#1031,#220);
#151=LINE('',#1037,#221);
#152=LINE('',#1043,#222);
#153=LINE('',#1048,#223);
#154=LINE('',#1049,#224);
#155=LINE('',#1052,#225);
#156=LINE('',#1058,#226);
#157=LINE('',#1061,#227);
#158=LINE('',#1065,#228);
#159=LINE('',#1070,#229);
#160=LINE('',#1071,#230);
#161=LINE('',#1074,#231);
#162=LINE('',#1078,#232);
#163=LINE('',#1079,#233);
#164=LINE('',#1084,#234);
#165=LINE('',#1089,#235);
#166=LINE('',#1090,#236);
#167=LINE('',#1093,#237);
#168=LINE('',#1094,#238);
#169=LINE('',#1096,#239);
#170=LINE('',#1097,#240);
#171=LINE('',#1099,#241);
#172=LINE('',#1100,#242);
#173=LINE('',#1101,#243);
#174=LINE('',#1103,#244);
#175=LINE('',#1104,#245);
#176=LINE('',#1106,#246);
#177=LINE('',#1107,#247);
#178=LINE('',#1111,#248);
#179=LINE('',#1113,#249);
#180=LINE('',#1116,#250);
#181=LINE('',#1120,#251);
#182=LINE('',#1123,#252);
#183=LINE('',#1126,#253);
#184=VECTOR('',#752,3.);
#185=VECTOR('',#761,10.);
#186=VECTOR('',#762,10.);
#187=VECTOR('',#763,10.);
#188=VECTOR('',#764,10.);
#189=VECTOR('',#765,10.);
#190=VECTOR('',#770,3.);
#191=VECTOR('',#779,10.);
#192=VECTOR('',#780,10.);
#193=VECTOR('',#781,10.);
#194=VECTOR('',#782,10.);
#195=VECTOR('',#783,10.);
#196=VECTOR('',#788,10.);
#197=VECTOR('',#789,10.);
#198=VECTOR('',#790,10.);
#199=VECTOR('',#797,10.);
#200=VECTOR('',#800,10.);
#201=VECTOR('',#803,10.);
#202=VECTOR('',#804,10.);
#203=VECTOR('',#805,10.);
#204=VECTOR('',#806,10.);
#205=VECTOR('',#807,10.);
#206=VECTOR('',#808,10.);
#207=VECTOR('',#809,10.);
#208=VECTOR('',#810,10.);
#209=VECTOR('',#811,10.);
#210=VECTOR('',#812,10.);
#211=VECTOR('',#813,10.);
#212=VECTOR('',#814,10.);
#213=VECTOR('',#815,10.);
#214=VECTOR('',#816,10.);
#215=VECTOR('',#817,10.);
#216=VECTOR('',#818,10.);
#217=VECTOR('',#819,10.);
#218=VECTOR('',#820,10.);
#219=VECTOR('',#821,10.);
#220=VECTOR('',#822,10.);
#221=VECTOR('',#829,10.);
#222=VECTOR('',#838,10.);
#223=VECTOR('',#843,10.);
#224=VECTOR('',#844,10.);
#225=VECTOR('',#847,10.);
#226=VECTOR('',#854,10.);
#227=VECTOR('',#857,10.);
#228=VECTOR('',#862,10.);
#229=VECTOR('',#867,10.);
#230=VECTOR('',#868,10.);
#231=VECTOR('',#871,10.);
#232=VECTOR('',#876,10.);
#233=VECTOR('',#877,10.);
#234=VECTOR('',#882,3.);
#235=VECTOR('',#889,10.);
#236=VECTOR('',#890,10.);
#237=VECTOR('',#893,10.);
#238=VECTOR('',#894,10.);
#239=VECTOR('',#895,10.);
#240=VECTOR('',#896,10.);
#241=VECTOR('',#897,10.);
#242=VECTOR('',#898,10.);
#243=VECTOR('',#899,10.);
#244=VECTOR('',#900,10.);
#245=VECTOR('',#901,10.);
#246=VECTOR('',#902,10.);
#247=VECTOR('',#903,10.);
#248=VECTOR('',#908,2.5);
#249=VECTOR('',#911,10.);
#250=VECTOR('',#916,10.);
#251=VECTOR('',#923,10.);
#252=VECTOR('',#928,10.);
#253=VECTOR('',#933,10.);
#254=CIRCLE('',#688,3.);
#255=CIRCLE('',#689,3.);
#256=CIRCLE('',#690,3.);
#257=CIRCLE('',#691,3.);
#258=CIRCLE('',#694,3.);
#259=CIRCLE('',#695,3.);
#260=CIRCLE('',#696,3.);
#261=CIRCLE('',#697,3.);
#262=CIRCLE('',#700,5.);
#263=CIRCLE('',#702,5.);
#264=CIRCLE('',#704,5.);
#265=CIRCLE('',#706,2.5);
#266=CIRCLE('',#708,5.);
#267=CIRCLE('',#710,5.);
#268=CIRCLE('',#712,5.);
#269=CIRCLE('',#714,5.);
#270=CIRCLE('',#716,5.);
#271=CIRCLE('',#718,5.);
#272=CIRCLE('',#719,3.);
#273=CIRCLE('',#721,5.);
#274=CIRCLE('',#723,5.);
#275=CIRCLE('',#725,5.);
#276=CIRCLE('',#727,3.);
#277=CIRCLE('',#729,3.);
#278=CIRCLE('',#730,3.);
#279=CIRCLE('',#733,2.5);
#280=VERTEX_POINT('',#938);
#281=VERTEX_POINT('',#940);
#282=VERTEX_POINT('',#942);
#283=VERTEX_POINT('',#944);
#284=VERTEX_POINT('',#948);
#285=VERTEX_POINT('',#950);
#286=VERTEX_POINT('',#952);
#287=VERTEX_POINT('',#954);
#288=VERTEX_POINT('',#958);
#289=VERTEX_POINT('',#960);
#290=VERTEX_POINT('',#962);
#291=VERTEX_POINT('',#964);
#292=VERTEX_POINT('',#968);
#293=VERTEX_POINT('',#970);
#294=VERTEX_POINT('',#972);
#295=VERTEX_POINT('',#974);
#296=VERTEX_POINT('',#978);
#297=VERTEX_POINT('',#979);
#298=VERTEX_POINT('',#981);
#299=VERTEX_POINT('',#983);
#300=VERTEX_POINT('',#989);
#301=VERTEX_POINT('',#991);
#302=VERTEX_POINT('',#995);
#303=VERTEX_POINT('',#998);
#304=VERTEX_POINT('',#1000);
#305=VERTEX_POINT('',#1002);
#306=VERTEX_POINT('',#1004);
#307=VERTEX_POINT('',#1006);
#308=VERTEX_POINT('',#1008);
#309=VERTEX_POINT('',#1010);
#310=VERTEX_POINT('',#1012);
#311=VERTEX_POINT('',#1014);
#312=VERTEX_POINT('',#1016);
#313=VERTEX_POINT('',#1018);
#314=VERTEX_POINT('',#1020);
#315=VERTEX_POINT('',#1022);
#316=VERTEX_POINT('',#1024);
#317=VERTEX_POINT('',#1027);
#318=VERTEX_POINT('',#1029);
#319=VERTEX_POINT('',#1032);
#320=VERTEX_POINT('',#1035);
#321=VERTEX_POINT('',#1041);
#322=VERTEX_POINT('',#1045);
#323=VERTEX_POINT('',#1047);
#324=VERTEX_POINT('',#1051);
#325=VERTEX_POINT('',#1055);
#326=VERTEX_POINT('',#1057);
#327=VERTEX_POINT('',#1059);
#328=VERTEX_POINT('',#1063);
#329=VERTEX_POINT('',#1067);
#330=VERTEX_POINT('',#1069);
#331=VERTEX_POINT('',#1073);
#332=VERTEX_POINT('',#1077);
#333=VERTEX_POINT('',#1080);
#334=VERTEX_POINT('',#1083);
#335=VERTEX_POINT('',#1088);
#336=VERTEX_POINT('',#1092);
#337=VERTEX_POINT('',#1095);
#338=VERTEX_POINT('',#1098);
#339=VERTEX_POINT('',#1102);
#340=VERTEX_POINT('',#1105);
#341=VERTEX_POINT('',#1108);
#342=EDGE_CURVE('',#280,#280,#254,.T.);
#343=EDGE_CURVE('',#280,#281,#114,.T.);
#344=EDGE_CURVE('',#282,#281,#255,.T.);
#345=EDGE_CURVE('',#283,#282,#256,.T.);
#346=EDGE_CURVE('',#281,#283,#257,.T.);
#347=EDGE_CURVE('',#283,#284,#115,.T.);
#348=EDGE_CURVE('',#285,#284,#116,.T.);
#349=EDGE_CURVE('',#286,#285,#117,.T.);
#350=EDGE_CURVE('',#287,#286,#118,.T.);
#351=EDGE_CURVE('',#287,#282,#119,.T.);
#352=EDGE_CURVE('',#288,#288,#258,.T.);
#353=EDGE_CURVE('',#288,#289,#120,.T.);
#354=EDGE_CURVE('',#290,#289,#259,.T.);
#355=EDGE_CURVE('',#291,#290,#260,.T.);
#356=EDGE_CURVE('',#289,#291,#261,.T.);
#357=EDGE_CURVE('',#291,#292,#121,.T.);
#358=EDGE_CURVE('',#293,#292,#122,.T.);
#359=EDGE_CURVE('',#294,#293,#123,.T.);
#360=EDGE_CURVE('',#295,#294,#124,.T.);
#361=EDGE_CURVE('',#295,#290,#125,.T.);
#362=EDGE_CURVE('',#296,#297,#262,.T.);
#363=EDGE_CURVE('',#298,#296,#126,.T.);
#364=EDGE_CURVE('',#299,#298,#127,.T.);
#365=EDGE_CURVE('',#297,#299,#128,.T.);
#366=EDGE_CURVE('',#284,#287,#263,.T.);
#367=EDGE_CURVE('',#297,#300,#129,.T.);
#368=EDGE_CURVE('',#300,#301,#264,.T.);
#369=EDGE_CURVE('',#301,#296,#130,.T.);
#370=EDGE_CURVE('',#301,#302,#131,.T.);
#371=EDGE_CURVE('',#302,#285,#132,.T.);
#372=EDGE_CURVE('',#303,#284,#133,.T.);
#373=EDGE_CURVE('',#303,#304,#134,.T.);
#374=EDGE_CURVE('',#304,#305,#135,.T.);
#375=EDGE_CURVE('',#305,#306,#136,.T.);
#376=EDGE_CURVE('',#307,#306,#137,.T.);
#377=EDGE_CURVE('',#307,#308,#138,.T.);
#378=EDGE_CURVE('',#308,#309,#139,.T.);
#379=EDGE_CURVE('',#309,#310,#140,.T.);
#380=EDGE_CURVE('',#311,#310,#141,.T.);
#381=EDGE_CURVE('',#311,#312,#142,.T.);
#382=EDGE_CURVE('',#312,#313,#143,.T.);
#383=EDGE_CURVE('',#313,#314,#144,.T.);
#384=EDGE_CURVE('',#315,#314,#145,.T.);
#385=EDGE_CURVE('',#315,#316,#146,.T.);
#386=EDGE_CURVE('',#316,#293,#147,.T.);
#387=EDGE_CURVE('',#317,#292,#148,.T.);
#388=EDGE_CURVE('',#317,#318,#149,.T.);
#389=EDGE_CURVE('',#318,#298,#150,.T.);
#390=EDGE_CURVE('',#319,#319,#265,.T.);
#391=EDGE_CURVE('',#320,#303,#266,.T.);
#392=EDGE_CURVE('',#287,#320,#151,.T.);
#393=EDGE_CURVE('',#292,#295,#267,.T.);
#394=EDGE_CURVE('',#321,#317,#268,.T.);
#395=EDGE_CURVE('',#295,#321,#152,.T.);
#396=EDGE_CURVE('',#314,#322,#269,.T.);
#397=EDGE_CURVE('',#323,#313,#153,.T.);
#398=EDGE_CURVE('',#322,#323,#154,.T.);
#399=EDGE_CURVE('',#322,#324,#155,.T.);
#400=EDGE_CURVE('',#324,#315,#270,.T.);
#401=EDGE_CURVE('',#310,#325,#271,.T.);
#402=EDGE_CURVE('',#326,#310,#156,.T.);
#403=EDGE_CURVE('',#326,#327,#272,.T.);
#404=EDGE_CURVE('',#325,#327,#157,.T.);
#405=EDGE_CURVE('',#328,#311,#273,.T.);
#406=EDGE_CURVE('',#325,#328,#158,.T.);
#407=EDGE_CURVE('',#306,#329,#274,.T.);
#408=EDGE_CURVE('',#330,#305,#159,.T.);
#409=EDGE_CURVE('',#329,#330,#160,.T.);
#410=EDGE_CURVE('',#329,#331,#161,.T.);
#411=EDGE_CURVE('',#331,#307,#275,.T.);
#412=EDGE_CURVE('',#332,#331,#162,.T.);
#413=EDGE_CURVE('',#332,#308,#163,.T.);
#414=EDGE_CURVE('',#333,#333,#276,.T.);
#415=EDGE_CURVE('',#333,#334,#164,.T.);
#416=EDGE_CURVE('',#327,#334,#277,.T.);
#417=EDGE_CURVE('',#334,#326,#278,.T.);
#418=EDGE_CURVE('',#335,#309,#165,.T.);
#419=EDGE_CURVE('',#325,#335,#166,.T.);
#420=EDGE_CURVE('',#299,#336,#167,.T.);
#421=EDGE_CURVE('',#336,#321,#168,.T.);
#422=EDGE_CURVE('',#294,#337,#169,.T.);
#423=EDGE_CURVE('',#337,#324,#170,.T.);
#424=EDGE_CURVE('',#323,#338,#171,.T.);
#425=EDGE_CURVE('',#338,#328,#172,.T.);
#426=EDGE_CURVE('',#335,#332,#173,.T.);
#427=EDGE_CURVE('',#330,#339,#174,.T.);
#428=EDGE_CURVE('',#339,#320,#175,.T.);
#429=EDGE_CURVE('',#286,#340,#176,.T.);
#430=EDGE_CURVE('',#340,#300,#177,.T.);
#431=EDGE_CURVE('',#341,#341,#279,.T.);
#432=EDGE_CURVE('',#319,#341,#178,.T.);
#433=EDGE_CURVE('',#337,#316,#179,.T.);
#434=EDGE_CURVE('',#338,#312,#180,.T.);
#435=EDGE_CURVE('',#339,#304,#181,.T.);
#436=EDGE_CURVE('',#340,#302,#182,.T.);
#437=EDGE_CURVE('',#336,#318,#183,.T.);
#438=ORIENTED_EDGE('',*,*,#342,.F.);
#439=ORIENTED_EDGE('',*,*,#343,.T.);
#440=ORIENTED_EDGE('',*,*,#344,.F.);
#441=ORIENTED_EDGE('',*,*,#345,.F.);
#442=ORIENTED_EDGE('',*,*,#346,.F.);
#443=ORIENTED_EDGE('',*,*,#343,.F.);
#444=ORIENTED_EDGE('',*,*,#344,.T.);
#445=ORIENTED_EDGE('',*,*,#346,.T.);
#446=ORIENTED_EDGE('',*,*,#347,.T.);
#447=ORIENTED_EDGE('',*,*,#348,.F.);
#448=ORIENTED_EDGE('',*,*,#349,.F.);
#449=ORIENTED_EDGE('',*,*,#350,.F.);
#450=ORIENTED_EDGE('',*,*,#351,.T.);
#451=ORIENTED_EDGE('',*,*,#352,.F.);
#452=ORIENTED_EDGE('',*,*,#353,.T.);
#453=ORIENTED_EDGE('',*,*,#354,.F.);
#454=ORIENTED_EDGE('',*,*,#355,.F.);
#455=ORIENTED_EDGE('',*,*,#356,.F.);
#456=ORIENTED_EDGE('',*,*,#353,.F.);
#457=ORIENTED_EDGE('',*,*,#354,.T.);
#458=ORIENTED_EDGE('',*,*,#356,.T.);
#459=ORIENTED_EDGE('',*,*,#357,.T.);
#460=ORIENTED_EDGE('',*,*,#358,.F.);
#461=ORIENTED_EDGE('',*,*,#359,.F.);
#462=ORIENTED_EDGE('',*,*,#360,.F.);
#463=ORIENTED_EDGE('',*,*,#361,.T.);
#464=ORIENTED_EDGE('',*,*,#362,.F.);
#465=ORIENTED_EDGE('',*,*,#363,.F.);
#466=ORIENTED_EDGE('',*,*,#364,.F.);
#467=ORIENTED_EDGE('',*,*,#365,.F.);
#468=ORIENTED_EDGE('',*,*,#345,.T.);
#469=ORIENTED_EDGE('',*,*,#351,.F.);
#470=ORIENTED_EDGE('',*,*,#366,.F.);
#471=ORIENTED_EDGE('',*,*,#347,.F.);
#472=ORIENTED_EDGE('',*,*,#362,.T.);
#473=ORIENTED_EDGE('',*,*,#367,.T.);
#474=ORIENTED_EDGE('',*,*,#368,.T.);
#475=ORIENTED_EDGE('',*,*,#369,.T.);
#476=ORIENTED_EDGE('',*,*,#369,.F.);
#477=ORIENTED_EDGE('',*,*,#370,.T.);
#478=ORIENTED_EDGE('',*,*,#371,.T.);
#479=ORIENTED_EDGE('',*,*,#348,.T.);
#480=ORIENTED_EDGE('',*,*,#372,.F.);
#481=ORIENTED_EDGE('',*,*,#373,.T.);
#482=ORIENTED_EDGE('',*,*,#374,.T.);
#483=ORIENTED_EDGE('',*,*,#375,.T.);
#484=ORIENTED_EDGE('',*,*,#376,.F.);
#485=ORIENTED_EDGE('',*,*,#377,.T.);
#486=ORIENTED_EDGE('',*,*,#378,.T.);
#487=ORIENTED_EDGE('',*,*,#379,.T.);
#488=ORIENTED_EDGE('',*,*,#380,.F.);
#489=ORIENTED_EDGE('',*,*,#381,.T.);
#490=ORIENTED_EDGE('',*,*,#382,.T.);
#491=ORIENTED_EDGE('',*,*,#383,.T.);
#492=ORIENTED_EDGE('',*,*,#384,.F.);
#493=ORIENTED_EDGE('',*,*,#385,.T.);
#494=ORIENTED_EDGE('',*,*,#386,.T.);
#495=ORIENTED_EDGE('',*,*,#358,.T.);
#496=ORIENTED_EDGE('',*,*,#387,.F.);
#497=ORIENTED_EDGE('',*,*,#388,.T.);
#498=ORIENTED_EDGE('',*,*,#389,.T.);
#499=ORIENTED_EDGE('',*,*,#363,.T.);
#500=ORIENTED_EDGE('',*,*,#390,.T.);
#501=ORIENTED_EDGE('',*,*,#391,.T.);
#502=ORIENTED_EDGE('',*,*,#372,.T.);
#503=ORIENTED_EDGE('',*,*,#366,.T.);
#504=ORIENTED_EDGE('',*,*,#392,.T.);
#505=ORIENTED_EDGE('',*,*,#355,.T.);
#506=ORIENTED_EDGE('',*,*,#361,.F.);
#507=ORIENTED_EDGE('',*,*,#393,.F.);
#508=ORIENTED_EDGE('',*,*,#357,.F.);
#509=ORIENTED_EDGE('',*,*,#394,.T.);
#510=ORIENTED_EDGE('',*,*,#387,.T.);
#511=ORIENTED_EDGE('',*,*,#393,.T.);
#512=ORIENTED_EDGE('',*,*,#395,.T.);
#513=ORIENTED_EDGE('',*,*,#396,.F.);
#514=ORIENTED_EDGE('',*,*,#383,.F.);
#515=ORIENTED_EDGE('',*,*,#397,.F.);
#516=ORIENTED_EDGE('',*,*,#398,.F.);
#517=ORIENTED_EDGE('',*,*,#396,.T.);
#518=ORIENTED_EDGE('',*,*,#399,.T.);
#519=ORIENTED_EDGE('',*,*,#400,.T.);
#520=ORIENTED_EDGE('',*,*,#384,.T.);
#521=ORIENTED_EDGE('',*,*,#401,.F.);
#522=ORIENTED_EDGE('',*,*,#402,.F.);
#523=ORIENTED_EDGE('',*,*,#403,.T.);
#524=ORIENTED_EDGE('',*,*,#404,.F.);
#525=ORIENTED_EDGE('',*,*,#405,.T.);
#526=ORIENTED_EDGE('',*,*,#380,.T.);
#527=ORIENTED_EDGE('',*,*,#401,.T.);
#528=ORIENTED_EDGE('',*,*,#406,.T.);
#529=ORIENTED_EDGE('',*,*,#407,.F.);
#530=ORIENTED_EDGE('',*,*,#375,.F.);
#531=ORIENTED_EDGE('',*,*,#408,.F.);
#532=ORIENTED_EDGE('',*,*,#409,.F.);
#533=ORIENTED_EDGE('',*,*,#407,.T.);
#534=ORIENTED_EDGE('',*,*,#410,.T.);
#535=ORIENTED_EDGE('',*,*,#411,.T.);
#536=ORIENTED_EDGE('',*,*,#376,.T.);
#537=ORIENTED_EDGE('',*,*,#411,.F.);
#538=ORIENTED_EDGE('',*,*,#412,.F.);
#539=ORIENTED_EDGE('',*,*,#413,.T.);
#540=ORIENTED_EDGE('',*,*,#377,.F.);
#541=ORIENTED_EDGE('',*,*,#414,.T.);
#542=ORIENTED_EDGE('',*,*,#414,.F.);
#543=ORIENTED_EDGE('',*,*,#415,.T.);
#544=ORIENTED_EDGE('',*,*,#416,.F.);
#545=ORIENTED_EDGE('',*,*,#403,.F.);
#546=ORIENTED_EDGE('',*,*,#417,.F.);
#547=ORIENTED_EDGE('',*,*,#415,.F.);
#548=ORIENTED_EDGE('',*,*,#416,.T.);
#549=ORIENTED_EDGE('',*,*,#417,.T.);
#550=ORIENTED_EDGE('',*,*,#402,.T.);
#551=ORIENTED_EDGE('',*,*,#379,.F.);
#552=ORIENTED_EDGE('',*,*,#418,.F.);
#553=ORIENTED_EDGE('',*,*,#419,.F.);
#554=ORIENTED_EDGE('',*,*,#404,.T.);
#555=ORIENTED_EDGE('',*,*,#367,.F.);
#556=ORIENTED_EDGE('',*,*,#365,.T.);
#557=ORIENTED_EDGE('',*,*,#420,.T.);
#558=ORIENTED_EDGE('',*,*,#421,.T.);
#559=ORIENTED_EDGE('',*,*,#395,.F.);
#560=ORIENTED_EDGE('',*,*,#360,.T.);
#561=ORIENTED_EDGE('',*,*,#422,.T.);
#562=ORIENTED_EDGE('',*,*,#423,.T.);
#563=ORIENTED_EDGE('',*,*,#399,.F.);
#564=ORIENTED_EDGE('',*,*,#398,.T.);
#565=ORIENTED_EDGE('',*,*,#424,.T.);
#566=ORIENTED_EDGE('',*,*,#425,.T.);
#567=ORIENTED_EDGE('',*,*,#406,.F.);
#568=ORIENTED_EDGE('',*,*,#419,.T.);
#569=ORIENTED_EDGE('',*,*,#426,.T.);
#570=ORIENTED_EDGE('',*,*,#412,.T.);
#571=ORIENTED_EDGE('',*,*,#410,.F.);
#572=ORIENTED_EDGE('',*,*,#409,.T.);
#573=ORIENTED_EDGE('',*,*,#427,.T.);
#574=ORIENTED_EDGE('',*,*,#428,.T.);
#575=ORIENTED_EDGE('',*,*,#392,.F.);
#576=ORIENTED_EDGE('',*,*,#350,.T.);
#577=ORIENTED_EDGE('',*,*,#429,.T.);
#578=ORIENTED_EDGE('',*,*,#430,.T.);
#579=ORIENTED_EDGE('',*,*,#431,.T.);
#580=ORIENTED_EDGE('',*,*,#390,.F.);
#581=ORIENTED_EDGE('',*,*,#432,.T.);
#582=ORIENTED_EDGE('',*,*,#431,.F.);
#583=ORIENTED_EDGE('',*,*,#432,.F.);
#584=ORIENTED_EDGE('',*,*,#359,.T.);
#585=ORIENTED_EDGE('',*,*,#386,.F.);
#586=ORIENTED_EDGE('',*,*,#433,.F.);
#587=ORIENTED_EDGE('',*,*,#422,.F.);
#588=ORIENTED_EDGE('',*,*,#400,.F.);
#589=ORIENTED_EDGE('',*,*,#423,.F.);
#590=ORIENTED_EDGE('',*,*,#433,.T.);
#591=ORIENTED_EDGE('',*,*,#385,.F.);
#592=ORIENTED_EDGE('',*,*,#352,.T.);
#593=ORIENTED_EDGE('',*,*,#397,.T.);
#594=ORIENTED_EDGE('',*,*,#382,.F.);
#595=ORIENTED_EDGE('',*,*,#434,.F.);
#596=ORIENTED_EDGE('',*,*,#424,.F.);
#597=ORIENTED_EDGE('',*,*,#405,.F.);
#598=ORIENTED_EDGE('',*,*,#425,.F.);
#599=ORIENTED_EDGE('',*,*,#434,.T.);
#600=ORIENTED_EDGE('',*,*,#381,.F.);
#601=ORIENTED_EDGE('',*,*,#418,.T.);
#602=ORIENTED_EDGE('',*,*,#378,.F.);
#603=ORIENTED_EDGE('',*,*,#413,.F.);
#604=ORIENTED_EDGE('',*,*,#426,.F.);
#605=ORIENTED_EDGE('',*,*,#408,.T.);
#606=ORIENTED_EDGE('',*,*,#374,.F.);
#607=ORIENTED_EDGE('',*,*,#435,.F.);
#608=ORIENTED_EDGE('',*,*,#427,.F.);
#609=ORIENTED_EDGE('',*,*,#391,.F.);
#610=ORIENTED_EDGE('',*,*,#428,.F.);
#611=ORIENTED_EDGE('',*,*,#435,.T.);
#612=ORIENTED_EDGE('',*,*,#373,.F.);
#613=ORIENTED_EDGE('',*,*,#349,.T.);
#614=ORIENTED_EDGE('',*,*,#371,.F.);
#615=ORIENTED_EDGE('',*,*,#436,.F.);
#616=ORIENTED_EDGE('',*,*,#429,.F.);
#617=ORIENTED_EDGE('',*,*,#368,.F.);
#618=ORIENTED_EDGE('',*,*,#430,.F.);
#619=ORIENTED_EDGE('',*,*,#436,.T.);
#620=ORIENTED_EDGE('',*,*,#370,.F.);
#621=ORIENTED_EDGE('',*,*,#342,.T.);
#622=ORIENTED_EDGE('',*,*,#364,.T.);
#623=ORIENTED_EDGE('',*,*,#389,.F.);
#624=ORIENTED_EDGE('',*,*,#437,.F.);
#625=ORIENTED_EDGE('',*,*,#420,.F.);
#626=ORIENTED_EDGE('',*,*,#394,.F.);
#627=ORIENTED_EDGE('',*,*,#421,.F.);
#628=ORIENTED_EDGE('',*,*,#437,.T.);
#629=ORIENTED_EDGE('',*,*,#388,.F.);
#630=CYLINDRICAL_SURFACE('',#687,3.);
#631=CYLINDRICAL_SURFACE('',#693,3.);
#632=CYLINDRICAL_SURFACE('',#703,5.);
#633=CYLINDRICAL_SURFACE('',#707,5.);
#634=CYLINDRICAL_SURFACE('',#711,5.);
#635=CYLINDRICAL_SURFACE('',#715,5.);
#636=CYLINDRICAL_SURFACE('',#720,5.);
#637=CYLINDRICAL_SURFACE('',#724,5.);
#638=CYLINDRICAL_SURFACE('',#728,3.);
#639=CYLINDRICAL_SURFACE('',#734,2.5);
#640=ADVANCED_FACE('',(#43),#630,.T.);
#641=ADVANCED_FACE('',(#44),#20,.T.);
#642=ADVANCED_FACE('',(#45),#631,.T.);
#643=ADVANCED_FACE('',(#46),#21,.T.);
#644=ADVANCED_FACE('',(#47),#22,.T.);
#645=ADVANCED_FACE('',(#48),#23,.T.);
#646=ADVANCED_FACE('',(#49),#632,.T.);
#647=ADVANCED_FACE('',(#50,#15),#24,.T.);
#648=ADVANCED_FACE('',(#51),#633,.T.);
#649=ADVANCED_FACE('',(#52),#25,.T.);
#650=ADVANCED_FACE('',(#53),#634,.T.);
#651=ADVANCED_FACE('',(#54),#26,.T.);
#652=ADVANCED_FACE('',(#55),#635,.T.);
#653=ADVANCED_FACE('',(#56),#27,.T.);
#654=ADVANCED_FACE('',(#57),#636,.T.);
#655=ADVANCED_FACE('',(#58),#28,.T.);
#656=ADVANCED_FACE('',(#59),#637,.T.);
#657=ADVANCED_FACE('',(#60,#16),#29,.T.);
#658=ADVANCED_FACE('',(#61),#638,.T.);
#659=ADVANCED_FACE('',(#62),#30,.T.);
#660=ADVANCED_FACE('',(#63,#17),#31,.F.);
#661=ADVANCED_FACE('',(#64),#639,.F.);
#662=ADVANCED_FACE('',(#65),#32,.T.);
#663=ADVANCED_FACE('',(#66,#18),#33,.T.);
#664=ADVANCED_FACE('',(#67),#34,.T.);
#665=ADVANCED_FACE('',(#68),#35,.T.);
#666=ADVANCED_FACE('',(#69),#36,.T.);
#667=ADVANCED_FACE('',(#70),#37,.T.);
#668=ADVANCED_FACE('',(#71),#38,.T.);
#669=ADVANCED_FACE('',(#72),#39,.T.);
#670=ADVANCED_FACE('',(#73,#19),#40,.T.);
#671=ADVANCED_FACE('',(#74),#41,.T.);
#672=ADVANCED_FACE('',(#75),#42,.T.);
#673=CLOSED_SHELL('',(#640,#641,#642,#643,#644,#645,#646,#647,#648,#649,
#650,#651,#652,#653,#654,#655,#656,#657,#658,#659,#660,#661,#662,#663,#664,
#665,#666,#667,#668,#669,#670,#671,#672));
#674=DERIVED_UNIT_ELEMENT(#676,1.);
#675=DERIVED_UNIT_ELEMENT(#1133,-3.);
#676=(
MASS_UNIT()
NAMED_UNIT(*)
SI_UNIT(.KILO.,.GRAM.)
);
#677=DERIVED_UNIT((#674,#675));
#678=MEASURE_REPRESENTATION_ITEM('density measure',
POSITIVE_RATIO_MEASURE(7850.),#677);
#679=PROPERTY_DEFINITION_REPRESENTATION(#684,#681);
#680=PROPERTY_DEFINITION_REPRESENTATION(#685,#682);
#681=REPRESENTATION('material name',(#683),#1130);
#682=REPRESENTATION('density',(#678),#1130);
#683=DESCRIPTIVE_REPRESENTATION_ITEM('Steel','Steel');
#684=PROPERTY_DEFINITION('material property','material name',#1140);
#685=PROPERTY_DEFINITION('material property','density of part',#1140);
#686=AXIS2_PLACEMENT_3D('',#936,#746,#747);
#687=AXIS2_PLACEMENT_3D('',#937,#748,#749);
#688=AXIS2_PLACEMENT_3D('',#939,#750,#751);
#689=AXIS2_PLACEMENT_3D('',#943,#753,#754);
#690=AXIS2_PLACEMENT_3D('',#945,#755,#756);
#691=AXIS2_PLACEMENT_3D('',#946,#757,#758);
#692=AXIS2_PLACEMENT_3D('',#947,#759,#760);
#693=AXIS2_PLACEMENT_3D('',#957,#766,#767);
#694=AXIS2_PLACEMENT_3D('',#959,#768,#769);
#695=AXIS2_PLACEMENT_3D('',#963,#771,#772);
#696=AXIS2_PLACEMENT_3D('',#965,#773,#774);
#697=AXIS2_PLACEMENT_3D('',#966,#775,#776);
#698=AXIS2_PLACEMENT_3D('',#967,#777,#778);
#699=AXIS2_PLACEMENT_3D('',#977,#784,#785);
#700=AXIS2_PLACEMENT_3D('',#980,#786,#787);
#701=AXIS2_PLACEMENT_3D('',#986,#791,#792);
#702=AXIS2_PLACEMENT_3D('',#987,#793,#794);
#703=AXIS2_PLACEMENT_3D('',#988,#795,#796);
#704=AXIS2_PLACEMENT_3D('',#992,#798,#799);
#705=AXIS2_PLACEMENT_3D('',#994,#801,#802);
#706=AXIS2_PLACEMENT_3D('',#1033,#823,#824);
#707=AXIS2_PLACEMENT_3D('',#1034,#825,#826);
#708=AXIS2_PLACEMENT_3D('',#1036,#827,#828);
#709=AXIS2_PLACEMENT_3D('',#1038,#830,#831);
#710=AXIS2_PLACEMENT_3D('',#1039,#832,#833);
#711=AXIS2_PLACEMENT_3D('',#1040,#834,#835);
#712=AXIS2_PLACEMENT_3D('',#1042,#836,#837);
#713=AXIS2_PLACEMENT_3D('',#1044,#839,#840);
#714=AXIS2_PLACEMENT_3D('',#1046,#841,#842);
#715=AXIS2_PLACEMENT_3D('',#1050,#845,#846);
#716=AXIS2_PLACEMENT_3D('',#1053,#848,#849);
#717=AXIS2_PLACEMENT_3D('',#1054,#850,#851);
#718=AXIS2_PLACEMENT_3D('',#1056,#852,#853);
#719=AXIS2_PLACEMENT_3D('',#1060,#855,#856);
#720=AXIS2_PLACEMENT_3D('',#1062,#858,#859);
#721=AXIS2_PLACEMENT_3D('',#1064,#860,#861);
#722=AXIS2_PLACEMENT_3D('',#1066,#863,#864);
#723=AXIS2_PLACEMENT_3D('',#1068,#865,#866);
#724=AXIS2_PLACEMENT_3D('',#1072,#869,#870);
#725=AXIS2_PLACEMENT_3D('',#1075,#872,#873);
#726=AXIS2_PLACEMENT_3D('',#1076,#874,#875);
#727=AXIS2_PLACEMENT_3D('',#1081,#878,#879);
#728=AXIS2_PLACEMENT_3D('',#1082,#880,#881);
#729=AXIS2_PLACEMENT_3D('',#1085,#883,#884);
#730=AXIS2_PLACEMENT_3D('',#1086,#885,#886);
#731=AXIS2_PLACEMENT_3D('',#1087,#887,#888);
#732=AXIS2_PLACEMENT_3D('',#1091,#891,#892);
#733=AXIS2_PLACEMENT_3D('',#1109,#904,#905);
#734=AXIS2_PLACEMENT_3D('',#1110,#906,#907);
#735=AXIS2_PLACEMENT_3D('',#1112,#909,#910);
#736=AXIS2_PLACEMENT_3D('',#1114,#912,#913);
#737=AXIS2_PLACEMENT_3D('',#1115,#914,#915);
#738=AXIS2_PLACEMENT_3D('',#1117,#917,#918);
#739=AXIS2_PLACEMENT_3D('',#1118,#919,#920);
#740=AXIS2_PLACEMENT_3D('',#1119,#921,#922);
#741=AXIS2_PLACEMENT_3D('',#1121,#924,#925);
#742=AXIS2_PLACEMENT_3D('',#1122,#926,#927);
#743=AXIS2_PLACEMENT_3D('',#1124,#929,#930);
#744=AXIS2_PLACEMENT_3D('',#1125,#931,#932);
#745=AXIS2_PLACEMENT_3D('',#1127,#934,#935);
#746=DIRECTION('axis',(0.,0.,1.));
#747=DIRECTION('refdir',(1.,0.,0.));
#748=DIRECTION('center_axis',(-0.866025403784438,0.,-0.5));
#749=DIRECTION('ref_axis',(-0.500000000000001,0.,0.866025403784438));
#750=DIRECTION('center_axis',(-0.866025403784439,0.,-0.5));
#751=DIRECTION('ref_axis',(-0.500000000000001,0.,0.866025403784438));
#752=DIRECTION('',(0.866025403784438,0.,0.500000000000001));
#753=DIRECTION('center_axis',(0.866025398053222,0.,0.500000009926758));
#754=DIRECTION('ref_axis',(-0.500000009926758,0.,0.866025398053222));
#755=DIRECTION('center_axis',(0.866025403784438,0.,0.5));
#756=DIRECTION('ref_axis',(-0.500000000000001,0.,0.866025403784438));
#757=DIRECTION('center_axis',(0.866025398053222,0.,0.500000009926758));
#758=DIRECTION('ref_axis',(-0.500000009926758,0.,0.866025398053222));
#759=DIRECTION('center_axis',(-0.866025398053222,0.,-0.500000009926758));
#760=DIRECTION('ref_axis',(-0.500000009926758,0.,0.866025398053222));
#761=DIRECTION('',(0.,1.,0.));
#762=DIRECTION('',(-0.500000009926758,0.,0.866025398053222));
#763=DIRECTION('',(0.,1.,0.));
#764=DIRECTION('',(0.500000009926758,0.,-0.866025398053222));
#765=DIRECTION('',(0.,1.,0.));
#766=DIRECTION('center_axis',(0.866025403784439,0.,-0.5));
#767=DIRECTION('ref_axis',(-0.5,0.,-0.866025403784439));
#768=DIRECTION('center_axis',(0.866025403784439,0.,-0.499999999999999));
#769=DIRECTION('ref_axis',(-0.5,0.,-0.866025403784439));
#770=DIRECTION('',(-0.866025403784439,0.,0.5));
#771=DIRECTION('center_axis',(-0.866025409515655,0.,0.499999990073243));
#772=DIRECTION('ref_axis',(0.,1.,0.));
#773=DIRECTION('center_axis',(-0.866025403784439,0.,0.5));
#774=DIRECTION('ref_axis',(-0.5,0.,-0.866025403784439));
#775=DIRECTION('center_axis',(-0.866025409515655,0.,0.499999990073243));
#776=DIRECTION('ref_axis',(0.,1.,0.));
#777=DIRECTION('center_axis',(0.866025409515655,0.,-0.499999990073243));
#778=DIRECTION('ref_axis',(-0.499999990073243,0.,-0.866025409515655));
#779=DIRECTION('',(0.,1.,0.));
#780=DIRECTION('',(-0.499999990073243,0.,-0.866025409515655));
#781=DIRECTION('',(0.,1.,0.));
#782=DIRECTION('',(0.499999990073243,0.,0.866025409515655));
#783=DIRECTION('',(0.,1.,0.));
#784=DIRECTION('center_axis',(-0.866025403784438,0.,-0.500000000000001));
#785=DIRECTION('ref_axis',(-0.500000000000001,0.,0.866025403784438));
#786=DIRECTION('center_axis',(0.866025403784438,0.,0.500000000000001));
#787=DIRECTION('ref_axis',(-0.353553390593274,0.707106781186547,0.612372435695795));
#788=DIRECTION('',(-0.500000000000001,0.,0.866025403784438));
#789=DIRECTION('',(0.,1.,0.));
#790=DIRECTION('',(0.500000000000001,0.,-0.866025403784438));
#791=DIRECTION('center_axis',(-0.866025403784438,0.,-0.5));
#792=DIRECTION('ref_axis',(-0.5,0.,0.866025403784438));
#793=DIRECTION('center_axis',(0.866025403784438,0.,0.5));
#794=DIRECTION('ref_axis',(-0.353553390593274,0.707106781186547,0.612372435695795));
#795=DIRECTION('center_axis',(0.866025403784439,0.,0.5));
#796=DIRECTION('ref_axis',(-0.353553390593274,0.707106781186547,0.612372435695795));
#797=DIRECTION('',(0.866025403784439,0.,0.5));
#798=DIRECTION('center_axis',(-0.866025403784439,0.,-0.5));
#799=DIRECTION('ref_axis',(-0.353553390593274,0.707106781186547,0.612372435695795));
#800=DIRECTION('',(-0.866025403784439,0.,-0.5));
#801=DIRECTION('center_axis',(0.,1.,0.));
#802=DIRECTION('ref_axis',(1.,0.,0.));
#803=DIRECTION('',(0.5,0.,-0.866025403784439));
#804=DIRECTION('',(0.866025403784439,0.,0.5));
#805=DIRECTION('',(-0.866025403784439,0.,-0.5));
#806=DIRECTION('',(0.499999999999994,0.,-0.866025403784442));
#807=DIRECTION('',(0.86602540378444,0.,-0.499999999999998));
#808=DIRECTION('',(1.,0.,3.70074341541719E-16));
#809=DIRECTION('',(0.,0.,1.));
#810=DIRECTION('',(-1.,0.,-2.22044604925031E-16));
#811=DIRECTION('',(0.,0.,-1.));
#812=DIRECTION('',(1.,0.,1.14624324846583E-8));
#813=DIRECTION('',(0.,0.,1.));
#814=DIRECTION('',(-1.,0.,3.70074341541719E-16));
#815=DIRECTION('',(-0.866025403784438,0.,-0.5));
#816=DIRECTION('',(-0.499999999999999,0.,-0.866025403784439));
#817=DIRECTION('',(0.866025403784439,0.,-0.5));
#818=DIRECTION('',(0.499999999999999,0.,0.866025403784439));
#819=DIRECTION('',(-0.866025403784439,0.,0.5));
#820=DIRECTION('',(0.866025403784439,0.,-0.5));
#821=DIRECTION('',(0.500000000000006,0.,0.866025403784435));
#822=DIRECTION('',(-2.86015091149196E-15,0.,1.));
#823=DIRECTION('center_axis',(0.,-1.,0.));
#824=DIRECTION('ref_axis',(1.,0.,0.));
#825=DIRECTION('center_axis',(0.866025403784439,0.,0.5));
#826=DIRECTION('ref_axis',(-0.353553390593274,0.707106781186547,0.612372435695795));
#827=DIRECTION('center_axis',(-0.866025403784442,0.,-0.499999999999994));
#828=DIRECTION('ref_axis',(-0.353553390593274,0.707106781186547,0.612372435695795));
#829=DIRECTION('',(0.866025403784439,0.,0.5));
#830=DIRECTION('center_axis',(0.866025403784439,0.,-0.5));
#831=DIRECTION('ref_axis',(-0.5,0.,-0.866025403784439));
#832=DIRECTION('center_axis',(-0.866025403784439,0.,0.5));
#833=DIRECTION('ref_axis',(-0.353553390593274,-0.707106781186547,-0.612372435695795));
#834=DIRECTION('center_axis',(-0.866025403784439,0.,0.5));
#835=DIRECTION('ref_axis',(-0.353553390593274,0.707106781186547,-0.612372435695795));
#836=DIRECTION('center_axis',(0.866025403784435,0.,-0.500000000000006));
#837=DIRECTION('ref_axis',(-0.353553390593274,0.707106781186547,-0.612372435695795));
#838=DIRECTION('',(-0.866025403784439,0.,0.5));
#839=DIRECTION('center_axis',(0.866025403784439,0.,-0.499999999999999));
#840=DIRECTION('ref_axis',(-0.499999999999999,0.,-0.866025403784439));
#841=DIRECTION('center_axis',(-0.866025403784439,0.,0.499999999999999));
#842=DIRECTION('ref_axis',(-0.353553390593274,0.707106781186548,-0.612372435695794));
#843=DIRECTION('',(0.,1.,0.));
#844=DIRECTION('',(0.499999999999999,0.,0.866025403784439));
#845=DIRECTION('center_axis',(-0.866025403784439,0.,0.5));
#846=DIRECTION('ref_axis',(-0.353553390593274,0.707106781186548,-0.612372435695794));
#847=DIRECTION('',(-0.866025403784439,0.,0.5));
#848=DIRECTION('center_axis',(0.866025403784439,0.,-0.499999999999999));
#849=DIRECTION('ref_axis',(-0.353553390593274,0.707106781186548,-0.612372435695794));
#850=DIRECTION('center_axis',(2.22044604925031E-16,0.,1.));
#851=DIRECTION('ref_axis',(1.,0.,-2.22044604925031E-16));
#852=DIRECTION('center_axis',(-2.22044604925031E-16,0.,-1.));
#853=DIRECTION('ref_axis',(0.707106781186547,0.707106781186547,0.));
#854=DIRECTION('',(0.,1.,0.));
#855=DIRECTION('center_axis',(-2.22044604925031E-16,0.,-1.));
#856=DIRECTION('ref_axis',(1.,0.,0.));
#857=DIRECTION('',(0.,1.,0.));
#858=DIRECTION('center_axis',(0.,0.,-1.));
#859=DIRECTION('ref_axis',(0.707106781186547,0.707106781186547,0.));
#860=DIRECTION('center_axis',(3.70074341541719E-16,0.,1.));
#861=DIRECTION('ref_axis',(0.707106781186547,0.707106781186547,0.));
#862=DIRECTION('',(0.,0.,-1.));
#863=DIRECTION('center_axis',(-3.70074341541719E-16,0.,1.));
#864=DIRECTION('ref_axis',(1.,0.,3.70074341541719E-16));
#865=DIRECTION('center_axis',(3.70074341541719E-16,0.,-1.));
#866=DIRECTION('ref_axis',(0.707106781186547,-0.707106781186547,0.));
#867=DIRECTION('',(0.,1.,0.));
#868=DIRECTION('',(-1.,0.,-3.70074341541719E-16));
#869=DIRECTION('center_axis',(0.,0.,-1.));
#870=DIRECTION('ref_axis',(0.707106781186547,0.707106781186547,0.));
#871=DIRECTION('',(0.,0.,-1.));
#872=DIRECTION('center_axis',(-2.22044604925031E-16,0.,1.));
#873=DIRECTION('ref_axis',(0.707106781186547,0.707106781186547,0.));
#874=DIRECTION('center_axis',(2.22044604925031E-16,0.,-1.));
#875=DIRECTION('ref_axis',(-1.,0.,-2.22044604925031E-16));
#876=DIRECTION('',(1.,0.,2.22044604925031E-16));
#877=DIRECTION('',(0.,1.,0.));
#878=DIRECTION('center_axis',(-2.22044604925031E-16,0.,1.));
#879=DIRECTION('ref_axis',(1.,0.,0.));
#880=DIRECTION('center_axis',(0.,0.,1.));
#881=DIRECTION('ref_axis',(1.,0.,0.));
#882=DIRECTION('',(0.,0.,-1.));
#883=DIRECTION('center_axis',(1.14624324846583E-8,0.,-1.));
#884=DIRECTION('ref_axis',(1.,0.,1.14624324846583E-8));
#885=DIRECTION('center_axis',(1.14624324846583E-8,0.,-1.));
#886=DIRECTION('ref_axis',(1.,0.,1.14624324846583E-8));
#887=DIRECTION('center_axis',(-1.14624324846583E-8,0.,1.));
#888=DIRECTION('ref_axis',(1.,0.,1.14624324846583E-8));
#889=DIRECTION('',(0.,1.,0.));
#890=DIRECTION('',(-1.,0.,-1.14624324846583E-8));
#891=DIRECTION('center_axis',(0.,1.,0.));
#892=DIRECTION('ref_axis',(1.,0.,0.));
#893=DIRECTION('',(2.86015091149196E-15,0.,-1.));
#894=DIRECTION('',(-0.500000000000006,0.,-0.866025403784435));
#895=DIRECTION('',(0.866025403784439,0.,-0.5));
#896=DIRECTION('',(-0.499999999999999,0.,-0.866025403784439));
#897=DIRECTION('',(0.866025403784438,0.,0.5));
#898=DIRECTION('',(1.,0.,-3.70074341541719E-16));
#899=DIRECTION('',(0.,0.,1.));
#900=DIRECTION('',(-0.86602540378444,0.,0.499999999999998));
#901=DIRECTION('',(-0.499999999999994,0.,0.866025403784442));
#902=DIRECTION('',(-0.866025403784439,0.,-0.5));
#903=DIRECTION('',(-0.5,0.,0.866025403784439));
#904=DIRECTION('center_axis',(0.,1.,0.));
#905=DIRECTION('ref_axis',(1.,0.,0.));
#906=DIRECTION('center_axis',(0.,1.,0.));
#907=DIRECTION('ref_axis',(1.,0.,0.));
#908=DIRECTION('',(0.,-1.,0.));
#909=DIRECTION('center_axis',(-0.5,0.,-0.866025403784439));
#910=DIRECTION('ref_axis',(-0.866025403784439,0.,0.5));
#911=DIRECTION('',(0.,1.,0.));
#912=DIRECTION('center_axis',(-0.866025403784439,0.,0.499999999999999));
#913=DIRECTION('ref_axis',(0.499999999999999,0.,0.866025403784439));
#914=DIRECTION('center_axis',(0.5,0.,-0.866025403784438));
#915=DIRECTION('ref_axis',(-0.866025403784438,0.,-0.5));
#916=DIRECTION('',(0.,1.,0.));
#917=DIRECTION('center_axis',(-3.70074341541719E-16,0.,-1.));
#918=DIRECTION('ref_axis',(-1.,0.,3.70074341541719E-16));
#919=DIRECTION('center_axis',(1.,0.,0.));
#920=DIRECTION('ref_axis',(0.,0.,-1.));
#921=DIRECTION('center_axis',(0.499999999999998,0.,0.86602540378444));
#922=DIRECTION('ref_axis',(0.86602540378444,0.,-0.499999999999998));
#923=DIRECTION('',(0.,1.,0.));
#924=DIRECTION('center_axis',(0.866025403784442,0.,0.499999999999994));
#925=DIRECTION('ref_axis',(0.499999999999994,0.,-0.866025403784442));
#926=DIRECTION('center_axis',(-0.5,0.,0.866025403784439));
#927=DIRECTION('ref_axis',(0.866025403784439,0.,0.5));
#928=DIRECTION('',(0.,1.,0.));
#929=DIRECTION('center_axis',(0.866025403784439,0.,0.5));
#930=DIRECTION('ref_axis',(0.5,0.,-0.866025403784439));
#931=DIRECTION('center_axis',(-1.,0.,-2.86015091149196E-15));
#932=DIRECTION('ref_axis',(-2.86015091149196E-15,0.,1.));
#933=DIRECTION('',(0.,1.,0.));
#934=DIRECTION('center_axis',(-0.866025403784435,0.,0.500000000000006));
#935=DIRECTION('ref_axis',(0.500000000000006,0.,0.866025403784435));
#936=CARTESIAN_POINT('',(0.,0.,0.));
#937=CARTESIAN_POINT('Origin',(-17.25,0.,29.8778764305631));
#938=CARTESIAN_POINT('',(-20.0801270189222,-3.67394039744206E-16,24.7798002192098));
#939=CARTESIAN_POINT('Origin',(-21.5801270189222,0.,27.3778764305631));
#940=CARTESIAN_POINT('',(-11.4198729512975,-3.67394039744206E-16,29.7798002364035));
#941=CARTESIAN_POINT('',(-15.75,-3.67394039744206E-16,27.2798002192098));
#942=CARTESIAN_POINT('',(-12.9198729810778,-3.,32.3778764305631));
#943=CARTESIAN_POINT('Origin',(-12.9198729810778,0.,32.3778764305631));
#944=CARTESIAN_POINT('',(-12.9198729810778,3.,32.3778764305631));
#945=CARTESIAN_POINT('Origin',(-12.9198729810778,0.,32.3778764305631));
#946=CARTESIAN_POINT('Origin',(-12.9198729810778,0.,32.3778764305631));
#947=CARTESIAN_POINT('Origin',(-9.91987292151727,0.,27.1817240422438));
#948=CARTESIAN_POINT('',(-12.9198729810778,5.,32.3778764305631));
#949=CARTESIAN_POINT('',(-12.9198729810778,0.,32.3778764305631));
#950=CARTESIAN_POINT('',(-9.91987292151727,5.,27.1817240422438));
#951=CARTESIAN_POINT('',(-9.91987292151727,5.,27.1817240422438));
#952=CARTESIAN_POINT('',(-9.91987292151727,-5.,27.1817240422438));
#953=CARTESIAN_POINT('',(-9.91987292151727,0.,27.1817240422438));
#954=CARTESIAN_POINT('',(-12.9198729810778,-5.,32.3778764305631));
#955=CARTESIAN_POINT('',(-9.91987292151727,-5.,27.1817240422438));
#956=CARTESIAN_POINT('',(-12.9198729810778,0.,32.3778764305631));
#957=CARTESIAN_POINT('Origin',(-17.25,0.,-29.8778764305631));
#958=CARTESIAN_POINT('',(-11.4198729810778,-3.67394039744206E-16,-29.7798002192098));
#959=CARTESIAN_POINT('Origin',(-12.9198729810778,0.,-32.3778764305631));
#960=CARTESIAN_POINT('',(-20.0801270487025,-3.67394039744206E-16,-24.7798002020162));
#961=CARTESIAN_POINT('',(-15.75,-3.67394039744206E-16,-27.2798002192098));
#962=CARTESIAN_POINT('',(-21.5801270189222,-3.,-27.3778764305631));
#963=CARTESIAN_POINT('Origin',(-21.5801270189222,0.,-27.3778764305631));
#964=CARTESIAN_POINT('',(-21.5801270189222,3.,-27.3778764305631));
#965=CARTESIAN_POINT('Origin',(-21.5801270189222,0.,-27.3778764305631));
#966=CARTESIAN_POINT('Origin',(-21.5801270189222,0.,-27.3778764305631));
#967=CARTESIAN_POINT('Origin',(-18.5801270784827,0.,-22.1817239734692));
#968=CARTESIAN_POINT('',(-21.5801270189222,5.,-27.3778764305631));
#969=CARTESIAN_POINT('',(-21.5801270189222,0.,-27.3778764305631));
#970=CARTESIAN_POINT('',(-18.5801270784827,5.,-22.1817239734692));
#971=CARTESIAN_POINT('',(-18.5801270784827,5.,-22.1817239734692));
#972=CARTESIAN_POINT('',(-18.5801270784827,-5.,-22.1817239734692));
#973=CARTESIAN_POINT('',(-18.5801270784827,0.,-22.1817239734692));
#974=CARTESIAN_POINT('',(-21.5801270189222,-5.,-27.3778764305631));
#975=CARTESIAN_POINT('',(-18.5801270784827,-5.,-22.1817239734692));
#976=CARTESIAN_POINT('',(-21.5801270189222,0.,-27.3778764305631));
#977=CARTESIAN_POINT('Origin',(-18.7451905283833,0.,17.4676223927187));
#978=CARTESIAN_POINT('',(-23.7451905283833,5.,26.1278764305631));
#979=CARTESIAN_POINT('',(-23.7451905283833,-5.,26.1278764305631));
#980=CARTESIAN_POINT('Origin',(-23.7451905283833,0.,26.1278764305631));
#981=CARTESIAN_POINT('',(-18.7451905283833,5.,17.4676223927187));
#982=CARTESIAN_POINT('',(-26.2451905283833,5.,30.4580034494853));
#983=CARTESIAN_POINT('',(-18.7451905283833,-5.,17.4676223927187));
#984=CARTESIAN_POINT('',(-18.7451905283833,0.,17.4676223927187));
#985=CARTESIAN_POINT('',(-26.2451905283833,-5.,30.4580034494853));
#986=CARTESIAN_POINT('Origin',(-12.9198729810778,0.,32.3778764305631));
#987=CARTESIAN_POINT('Origin',(-12.9198729810778,0.,32.3778764305631));
#988=CARTESIAN_POINT('Origin',(-18.0123184882635,0.,29.437751646156));
#989=CARTESIAN_POINT('',(-21.5801270189222,-5.,27.3778764305631));
#990=CARTESIAN_POINT('',(-18.0123184882635,-5.,29.437751646156));
#991=CARTESIAN_POINT('',(-21.5801270189222,5.,27.3778764305631));
#992=CARTESIAN_POINT('Origin',(-21.5801270189222,0.,27.3778764305631));
#993=CARTESIAN_POINT('',(-18.0123184882635,5.,29.437751646156));
#994=CARTESIAN_POINT('Origin',(6.62740473580835,5.,-8.88178419700125E-15));
#995=CARTESIAN_POINT('',(-18.5801270189222,5.,22.1817240078565));
#996=CARTESIAN_POINT('',(-24.0801270189222,5.,31.7080034494853));
#997=CARTESIAN_POINT('',(-18.5801270189222,5.,22.1817240078565));
#998=CARTESIAN_POINT('',(-10.7548094716168,5.,33.6278764305631));
#999=CARTESIAN_POINT('',(-12.5996597146108,5.,32.562751646156));
#1000=CARTESIAN_POINT('',(-5.75480947161682,5.,24.9676223927187));
#1001=CARTESIAN_POINT('',(-13.2548094716167,5.,37.9580034494853));
#1002=CARTESIAN_POINT('',(24.5,5.,7.5));
#1003=CARTESIAN_POINT('',(24.5,5.,7.5));
#1004=CARTESIAN_POINT('',(34.5,5.,7.5));
#1005=CARTESIAN_POINT('',(39.5,5.,7.5));
#1006=CARTESIAN_POINT('',(34.5,5.,5.));
#1007=CARTESIAN_POINT('',(34.5,5.,3.75));
#1008=CARTESIAN_POINT('',(28.5,5.,5.));
#1009=CARTESIAN_POINT('',(39.5,5.,5.));
#1010=CARTESIAN_POINT('',(28.5,5.,-5.00000006877459));
#1011=CARTESIAN_POINT('',(28.5,5.,5.));
#1012=CARTESIAN_POINT('',(34.5,5.,-5.));
#1013=CARTESIAN_POINT('',(28.5,5.,-5.00000006877459));
#1014=CARTESIAN_POINT('',(34.5,5.,-7.5));
#1015=CARTESIAN_POINT('',(34.5,5.,-2.5));
#1016=CARTESIAN_POINT('',(24.5,5.,-7.5));
#1017=CARTESIAN_POINT('',(39.5,5.,-7.5));
#1018=CARTESIAN_POINT('',(-5.75480947161672,5.,-24.9676223927188));
#1019=CARTESIAN_POINT('',(24.5,5.,-7.5));
#1020=CARTESIAN_POINT('',(-10.7548094716167,5.,-33.6278764305631));
#1021=CARTESIAN_POINT('',(-13.2548094716167,5.,-37.9580034494853));
#1022=CARTESIAN_POINT('',(-12.9198729810778,5.,-32.3778764305631));
#1023=CARTESIAN_POINT('',(-11.5171279598802,5.,-33.187751646156));
#1024=CARTESIAN_POINT('',(-9.9198729810778,5.,-27.1817240078565));
#1025=CARTESIAN_POINT('',(-15.4198729810778,5.,-36.7080034494853));
#1026=CARTESIAN_POINT('',(-9.9198729810778,5.,-27.1817240078565));
#1027=CARTESIAN_POINT('',(-23.7451905283833,5.,-26.1278764305632));
#1028=CARTESIAN_POINT('',(-16.929786733533,5.,-30.062751646156));
#1029=CARTESIAN_POINT('',(-18.7451905283832,5.,-17.4676223927188));
#1030=CARTESIAN_POINT('',(-26.2451905283833,5.,-30.4580034494853));
#1031=CARTESIAN_POINT('',(-18.7451905283832,5.,-17.4676223927188));
#1032=CARTESIAN_POINT('',(-2.5,5.,3.06161699786838E-16));
#1033=CARTESIAN_POINT('Origin',(0.,5.,0.));
#1034=CARTESIAN_POINT('Origin',(-12.5996597146108,0.,32.562751646156));
#1035=CARTESIAN_POINT('',(-10.7548094716168,-5.,33.6278764305631));
#1036=CARTESIAN_POINT('Origin',(-10.7548094716167,0.,33.6278764305631));
#1037=CARTESIAN_POINT('',(-12.5996597146108,-5.,32.562751646156));
#1038=CARTESIAN_POINT('Origin',(-21.5801270189222,0.,-27.3778764305631));
#1039=CARTESIAN_POINT('Origin',(-21.5801270189222,0.,-27.3778764305631));
#1040=CARTESIAN_POINT('Origin',(-16.929786733533,0.,-30.062751646156));
#1041=CARTESIAN_POINT('',(-23.7451905283833,-5.,-26.1278764305632));
#1042=CARTESIAN_POINT('Origin',(-23.7451905283833,0.,-26.1278764305631));
#1043=CARTESIAN_POINT('',(-16.929786733533,-5.,-30.062751646156));
#1044=CARTESIAN_POINT('Origin',(-5.75480947161672,0.,-24.9676223927188));
#1045=CARTESIAN_POINT('',(-10.7548094716167,-5.,-33.6278764305631));
#1046=CARTESIAN_POINT('Origin',(-10.7548094716167,0.,-33.6278764305631));
#1047=CARTESIAN_POINT('',(-5.75480947161672,-5.,-24.9676223927188));
#1048=CARTESIAN_POINT('',(-5.75480947161672,0.,-24.9676223927188));
#1049=CARTESIAN_POINT('',(-13.2548094716167,-5.,-37.9580034494853));
#1050=CARTESIAN_POINT('Origin',(-11.5171279598802,0.,-33.187751646156));
#1051=CARTESIAN_POINT('',(-12.9198729810778,-5.,-32.3778764305631));
#1052=CARTESIAN_POINT('',(-11.5171279598802,-5.,-33.187751646156));
#1053=CARTESIAN_POINT('Origin',(-12.9198729810778,0.,-32.3778764305631));
#1054=CARTESIAN_POINT('Origin',(34.5,0.,-5.));
#1055=CARTESIAN_POINT('',(34.5,-5.,-5.));
#1056=CARTESIAN_POINT('Origin',(34.5,0.,-5.));
#1057=CARTESIAN_POINT('',(34.5,3.,-5.));
#1058=CARTESIAN_POINT('',(34.5,0.,-5.));
#1059=CARTESIAN_POINT('',(34.5,-3.,-5.));
#1060=CARTESIAN_POINT('Origin',(34.5,0.,-5.));
#1061=CARTESIAN_POINT('',(34.5,0.,-5.));
#1062=CARTESIAN_POINT('Origin',(34.5,0.,-2.5));
#1063=CARTESIAN_POINT('',(34.5,-5.,-7.5));
#1064=CARTESIAN_POINT('Origin',(34.5,0.,-7.5));
#1065=CARTESIAN_POINT('',(34.5,-5.,-2.5));
#1066=CARTESIAN_POINT('Origin',(24.5,0.,7.5));
#1067=CARTESIAN_POINT('',(34.5,-5.,7.5));
#1068=CARTESIAN_POINT('Origin',(34.5,0.,7.5));
#1069=CARTESIAN_POINT('',(24.5,-5.,7.5));
#1070=CARTESIAN_POINT('',(24.5,0.,7.5));
#1071=CARTESIAN_POINT('',(39.5,-5.,7.5));
#1072=CARTESIAN_POINT('Origin',(34.5,0.,3.75));
#1073=CARTESIAN_POINT('',(34.5,-5.,5.));
#1074=CARTESIAN_POINT('',(34.5,-5.,3.75));
#1075=CARTESIAN_POINT('Origin',(34.5,0.,5.));
#1076=CARTESIAN_POINT('Origin',(39.5,0.,5.));
#1077=CARTESIAN_POINT('',(28.5,-5.,5.));
#1078=CARTESIAN_POINT('',(39.5,-5.,5.));
#1079=CARTESIAN_POINT('',(28.5,0.,5.));
#1080=CARTESIAN_POINT('',(31.5,-3.67394039744206E-16,5.));
#1081=CARTESIAN_POINT('Origin',(34.5,0.,5.));
#1082=CARTESIAN_POINT('Origin',(34.5,0.,1.11022302462516E-15));
#1083=CARTESIAN_POINT('',(31.5,-3.67394039744206E-16,-5.0000000343873));
#1084=CARTESIAN_POINT('',(31.5,-3.67394039744206E-16,1.11022302462516E-15));
#1085=CARTESIAN_POINT('Origin',(34.5,0.,-5.));
#1086=CARTESIAN_POINT('Origin',(34.5,0.,-5.));
#1087=CARTESIAN_POINT('Origin',(28.5,0.,-5.00000006877459));
#1088=CARTESIAN_POINT('',(28.5,-5.,-5.00000006877459));
#1089=CARTESIAN_POINT('',(28.5,0.,-5.00000006877459));
#1090=CARTESIAN_POINT('',(28.5,-5.,-5.00000006877459));
#1091=CARTESIAN_POINT('Origin',(6.62740473580835,-5.,-8.88178419700125E-15));
#1092=CARTESIAN_POINT('',(-18.7451905283832,-5.,-17.4676223927188));
#1093=CARTESIAN_POINT('',(-18.7451905283832,-5.,-17.4676223927188));
#1094=CARTESIAN_POINT('',(-26.2451905283833,-5.,-30.4580034494853));
#1095=CARTESIAN_POINT('',(-9.9198729810778,-5.,-27.1817240078565));
#1096=CARTESIAN_POINT('',(-9.9198729810778,-5.,-27.1817240078565));
#1097=CARTESIAN_POINT('',(-15.4198729810778,-5.,-36.7080034494853));
#1098=CARTESIAN_POINT('',(24.5,-5.,-7.5));
#1099=CARTESIAN_POINT('',(24.5,-5.,-7.5));
#1100=CARTESIAN_POINT('',(39.5,-5.,-7.5));
#1101=CARTESIAN_POINT('',(28.5,-5.,5.));
#1102=CARTESIAN_POINT('',(-5.75480947161682,-5.,24.9676223927187));
#1103=CARTESIAN_POINT('',(24.5,-5.,7.5));
#1104=CARTESIAN_POINT('',(-13.2548094716167,-5.,37.9580034494853));
#1105=CARTESIAN_POINT('',(-18.5801270189222,-5.,22.1817240078565));
#1106=CARTESIAN_POINT('',(-18.5801270189222,-5.,22.1817240078565));
#1107=CARTESIAN_POINT('',(-24.0801270189222,-5.,31.7080034494853));
#1108=CARTESIAN_POINT('',(-2.5,-5.,3.06161699786838E-16));
#1109=CARTESIAN_POINT('Origin',(0.,-5.,0.));
#1110=CARTESIAN_POINT('Origin',(0.,0.,0.));
#1111=CARTESIAN_POINT('',(-2.5,0.,3.06161699786838E-16));
#1112=CARTESIAN_POINT('Origin',(-9.9198729810778,0.,-27.1817240078565));
#1113=CARTESIAN_POINT('',(-9.9198729810778,0.,-27.1817240078565));
#1114=CARTESIAN_POINT('Origin',(-15.4198729810778,0.,-36.7080034494853));
#1115=CARTESIAN_POINT('Origin',(24.5,0.,-7.5));
#1116=CARTESIAN_POINT('',(24.5,0.,-7.5));
#1117=CARTESIAN_POINT('Origin',(39.5,0.,-7.5));
#1118=CARTESIAN_POINT('Origin',(28.5,0.,5.));
#1119=CARTESIAN_POINT('Origin',(-5.75480947161682,0.,24.9676223927187));
#1120=CARTESIAN_POINT('',(-5.75480947161682,0.,24.9676223927187));
#1121=CARTESIAN_POINT('Origin',(-13.2548094716167,0.,37.9580034494853));
#1122=CARTESIAN_POINT('Origin',(-18.5801270189222,0.,22.1817240078565));
#1123=CARTESIAN_POINT('',(-18.5801270189222,0.,22.1817240078565));
#1124=CARTESIAN_POINT('Origin',(-24.0801270189222,0.,31.7080034494853));
#1125=CARTESIAN_POINT('Origin',(-18.7451905283832,0.,-17.4676223927188));
#1126=CARTESIAN_POINT('',(-18.7451905283832,0.,-17.4676223927188));
#1127=CARTESIAN_POINT('Origin',(-26.2451905283833,0.,-30.4580034494853));
#1128=UNCERTAINTY_MEASURE_WITH_UNIT(LENGTH_MEASURE(0.01),#1132,
'DISTANCE_ACCURACY_VALUE',
'Maximum model space distance between geometric entities at asserted c
onnectivities');
#1129=UNCERTAINTY_MEASURE_WITH_UNIT(LENGTH_MEASURE(0.01),#1132,
'DISTANCE_ACCURACY_VALUE',
'Maximum model space distance between geometric entities at asserted c
onnectivities');
#1130=(
GEOMETRIC_REPRESENTATION_CONTEXT(3)
GLOBAL_UNCERTAINTY_ASSIGNED_CONTEXT((#1128))
GLOBAL_UNIT_ASSIGNED_CONTEXT((#1132,#1134,#1135))
REPRESENTATION_CONTEXT('','3D')
);
#1131=(
GEOMETRIC_REPRESENTATION_CONTEXT(3)
GLOBAL_UNCERTAINTY_ASSIGNED_CONTEXT((#1129))
GLOBAL_UNIT_ASSIGNED_CONTEXT((#1132,#1134,#1135))
REPRESENTATION_CONTEXT('','3D')
);
#1132=(
LENGTH_UNIT()
NAMED_UNIT(*)
SI_UNIT(.MILLI.,.METRE.)
);
#1133=(
LENGTH_UNIT()
NAMED_UNIT(*)
SI_UNIT($,.METRE.)
);
#1134=(
NAMED_UNIT(*)
PLANE_ANGLE_UNIT()
SI_UNIT($,.RADIAN.)
);
#1135=(
NAMED_UNIT(*)
SI_UNIT($,.STERADIAN.)
SOLID_ANGLE_UNIT()
);
#1136=SHAPE_DEFINITION_REPRESENTATION(#1137,#1138);
#1137=PRODUCT_DEFINITION_SHAPE('',$,#1140);
#1138=SHAPE_REPRESENTATION('',(#686),#1130);
#1139=PRODUCT_DEFINITION_CONTEXT('part definition',#1144,'design');
#1140=PRODUCT_DEFINITION('2025-12-08-21-43-27-675','(Unsaved)',#1141,#1139);
#1141=PRODUCT_DEFINITION_FORMATION('',$,#1146);
#1142=PRODUCT_RELATED_PRODUCT_CATEGORY('(Unsaved)','(Unsaved)',(#1146));
#1143=APPLICATION_PROTOCOL_DEFINITION('international standard',
'automotive_design',2009,#1144);
#1144=APPLICATION_CONTEXT(
'Core Data for Automotive Mechanical Design Process');
#1145=PRODUCT_CONTEXT('part definition',#1144,'mechanical');
#1146=PRODUCT('2025-12-08-21-43-27-675','(Unsaved)',$,(#1145));
#1147=PRESENTATION_STYLE_ASSIGNMENT((#1148));
#1148=SURFACE_STYLE_USAGE(.BOTH.,#1149);
#1149=SURFACE_SIDE_STYLE('',(#1150));
#1150=SURFACE_STYLE_FILL_AREA(#1151);
#1151=FILL_AREA_STYLE('Steel - Satin',(#1152));
#1152=FILL_AREA_STYLE_COLOUR('Steel - Satin',#1153);
#1153=COLOUR_RGB('Steel - Satin',0.627450980392157,0.627450980392157,0.627450980392157);
ENDSEC;
END-ISO-10303-21;
