ISO-10303-21;
HEADER;
/* Generated by software containing ST-Developer
 * from STEP Tools, Inc. (www.steptools.com) 
 */

FILE_DESCRIPTION(
/* description */ (''),
/* implementation_level */ '2;1');

FILE_NAME(
/* name */ 'force_experiment.step',
/* time_stamp */ '2025-12-08T19:15:22+07:00',
/* author */ (''),
/* organization */ (''),
/* preprocessor_version */ 'ST-DEVELOPER v20.1',
/* originating_system */ 'Autodesk Translation Framework v14.21.0.0',
/* authorisation */ '');

FILE_SCHEMA (('AUTOMOTIVE_DESIGN { 1 0 10303 214 3 1 1 }'));
ENDSEC;

DATA;
#10=MECHANICAL_DESIGN_GEOMETRIC_PRESENTATION_REPRESENTATION('',(#13),#512);
#11=SHAPE_REPRESENTATION_RELATIONSHIP('SRR','None',#519,#12);
#12=ADVANCED_BREP_SHAPE_REPRESENTATION('',(#14),#511);
#13=STYLED_ITEM('',(#528),#14);
#14=MANIFOLD_SOLID_BREP('Body1',#312);
#15=FACE_BOUND('',#56,.T.);
#16=FACE_BOUND('',#57,.T.);
#17=FACE_BOUND('',#58,.T.);
#18=CIRCLE('',#342,37.5);
#19=CIRCLE('',#343,37.5);
#20=CYLINDRICAL_SURFACE('',#341,37.5);
#21=FACE_OUTER_BOUND('',#39,.T.);
#22=FACE_OUTER_BOUND('',#40,.T.);
#23=FACE_OUTER_BOUND('',#41,.T.);
#24=FACE_OUTER_BOUND('',#42,.T.);
#25=FACE_OUTER_BOUND('',#43,.T.);
#26=FACE_OUTER_BOUND('',#44,.T.);
#27=FACE_OUTER_BOUND('',#45,.T.);
#28=FACE_OUTER_BOUND('',#46,.T.);
#29=FACE_OUTER_BOUND('',#47,.T.);
#30=FACE_OUTER_BOUND('',#48,.T.);
#31=FACE_OUTER_BOUND('',#49,.T.);
#32=FACE_OUTER_BOUND('',#50,.T.);
#33=FACE_OUTER_BOUND('',#51,.T.);
#34=FACE_OUTER_BOUND('',#52,.T.);
#35=FACE_OUTER_BOUND('',#53,.T.);
#36=FACE_OUTER_BOUND('',#54,.T.);
#37=FACE_OUTER_BOUND('',#55,.T.);
#38=FACE_OUTER_BOUND('',#59,.T.);
#39=EDGE_LOOP('',(#199,#200,#201,#202));
#40=EDGE_LOOP('',(#203,#204,#205,#206));
#41=EDGE_LOOP('',(#207,#208,#209,#210));
#42=EDGE_LOOP('',(#211,#212,#213,#214));
#43=EDGE_LOOP('',(#215,#216,#217,#218));
#44=EDGE_LOOP('',(#219,#220,#221,#222));
#45=EDGE_LOOP('',(#223,#224,#225,#226));
#46=EDGE_LOOP('',(#227,#228,#229,#230));
#47=EDGE_LOOP('',(#231,#232,#233,#234));
#48=EDGE_LOOP('',(#235,#236,#237,#238));
#49=EDGE_LOOP('',(#239,#240,#241,#242));
#50=EDGE_LOOP('',(#243,#244,#245,#246));
#51=EDGE_LOOP('',(#247,#248,#249,#250));
#52=EDGE_LOOP('',(#251,#252,#253,#254));
#53=EDGE_LOOP('',(#255,#256,#257,#258));
#54=EDGE_LOOP('',(#259,#260,#261,#262));
#55=EDGE_LOOP('',(#263));
#56=EDGE_LOOP('',(#264,#265,#266,#267));
#57=EDGE_LOOP('',(#268,#269,#270,#271));
#58=EDGE_LOOP('',(#272,#273,#274,#275));
#59=EDGE_LOOP('',(#276));
#60=LINE('',#429,#97);
#61=LINE('',#431,#98);
#62=LINE('',#433,#99);
#63=LINE('',#434,#100);
#64=LINE('',#437,#101);
#65=LINE('',#439,#102);
#66=LINE('',#440,#103);
#67=LINE('',#443,#104);
#68=LINE('',#445,#105);
#69=LINE('',#446,#106);
#70=LINE('',#448,#107);
#71=LINE('',#449,#108);
#72=LINE('',#454,#109);
#73=LINE('',#456,#110);
#74=LINE('',#458,#111);
#75=LINE('',#459,#112);
#76=LINE('',#462,#113);
#77=LINE('',#464,#114);
#78=LINE('',#465,#115);
#79=LINE('',#468,#116);
#80=LINE('',#470,#117);
#81=LINE('',#471,#118);
#82=LINE('',#473,#119);
#83=LINE('',#474,#120);
#84=LINE('',#479,#121);
#85=LINE('',#481,#122);
#86=LINE('',#483,#123);
#87=LINE('',#484,#124);
#88=LINE('',#487,#125);
#89=LINE('',#489,#126);
#90=LINE('',#490,#127);
#91=LINE('',#493,#128);
#92=LINE('',#495,#129);
#93=LINE('',#496,#130);
#94=LINE('',#498,#131);
#95=LINE('',#499,#132);
#96=LINE('',#505,#133);
#97=VECTOR('',#350,10.);
#98=VECTOR('',#351,10.);
#99=VECTOR('',#352,10.);
#100=VECTOR('',#353,10.);
#101=VECTOR('',#356,10.);
#102=VECTOR('',#357,10.);
#103=VECTOR('',#358,10.);
#104=VECTOR('',#361,10.);
#105=VECTOR('',#362,10.);
#106=VECTOR('',#363,10.);
#107=VECTOR('',#366,10.);
#108=VECTOR('',#367,10.);
#109=VECTOR('',#372,10.);
#110=VECTOR('',#373,10.);
#111=VECTOR('',#374,10.);
#112=VECTOR('',#375,10.);
#113=VECTOR('',#378,10.);
#114=VECTOR('',#379,10.);
#115=VECTOR('',#380,10.);
#116=VECTOR('',#383,10.);
#117=VECTOR('',#384,10.);
#118=VECTOR('',#385,10.);
#119=VECTOR('',#388,10.);
#120=VECTOR('',#389,10.);
#121=VECTOR('',#394,10.);
#122=VECTOR('',#395,10.);
#123=VECTOR('',#396,10.);
#124=VECTOR('',#397,10.);
#125=VECTOR('',#400,10.);
#126=VECTOR('',#401,10.);
#127=VECTOR('',#402,10.);
#128=VECTOR('',#405,10.);
#129=VECTOR('',#406,10.);
#130=VECTOR('',#407,10.);
#131=VECTOR('',#410,10.);
#132=VECTOR('',#411,10.);
#133=VECTOR('',#418,37.5);
#134=VERTEX_POINT('',#427);
#135=VERTEX_POINT('',#428);
#136=VERTEX_POINT('',#430);
#137=VERTEX_POINT('',#432);
#138=VERTEX_POINT('',#436);
#139=VERTEX_POINT('',#438);
#140=VERTEX_POINT('',#442);
#141=VERTEX_POINT('',#444);
#142=VERTEX_POINT('',#452);
#143=VERTEX_POINT('',#453);
#144=VERTEX_POINT('',#455);
#145=VERTEX_POINT('',#457);
#146=VERTEX_POINT('',#461);
#147=VERTEX_POINT('',#463);
#148=VERTEX_POINT('',#467);
#149=VERTEX_POINT('',#469);
#150=VERTEX_POINT('',#477);
#151=VERTEX_POINT('',#478);
#152=VERTEX_POINT('',#480);
#153=VERTEX_POINT('',#482);
#154=VERTEX_POINT('',#486);
#155=VERTEX_POINT('',#488);
#156=VERTEX_POINT('',#492);
#157=VERTEX_POINT('',#494);
#158=VERTEX_POINT('',#502);
#159=VERTEX_POINT('',#504);
#160=EDGE_CURVE('',#134,#135,#60,.T.);
#161=EDGE_CURVE('',#134,#136,#61,.T.);
#162=EDGE_CURVE('',#137,#136,#62,.T.);
#163=EDGE_CURVE('',#135,#137,#63,.T.);
#164=EDGE_CURVE('',#135,#138,#64,.T.);
#165=EDGE_CURVE('',#139,#137,#65,.T.);
#166=EDGE_CURVE('',#138,#139,#66,.T.);
#167=EDGE_CURVE('',#138,#140,#67,.T.);
#168=EDGE_CURVE('',#141,#139,#68,.T.);
#169=EDGE_CURVE('',#140,#141,#69,.T.);
#170=EDGE_CURVE('',#140,#134,#70,.T.);
#171=EDGE_CURVE('',#136,#141,#71,.T.);
#172=EDGE_CURVE('',#142,#143,#72,.T.);
#173=EDGE_CURVE('',#142,#144,#73,.T.);
#174=EDGE_CURVE('',#145,#144,#74,.T.);
#175=EDGE_CURVE('',#143,#145,#75,.T.);
#176=EDGE_CURVE('',#143,#146,#76,.T.);
#177=EDGE_CURVE('',#147,#145,#77,.T.);
#178=EDGE_CURVE('',#146,#147,#78,.T.);
#179=EDGE_CURVE('',#146,#148,#79,.T.);
#180=EDGE_CURVE('',#149,#147,#80,.T.);
#181=EDGE_CURVE('',#148,#149,#81,.T.);
#182=EDGE_CURVE('',#148,#142,#82,.T.);
#183=EDGE_CURVE('',#144,#149,#83,.T.);
#184=EDGE_CURVE('',#150,#151,#84,.T.);
#185=EDGE_CURVE('',#150,#152,#85,.T.);
#186=EDGE_CURVE('',#153,#152,#86,.T.);
#187=EDGE_CURVE('',#151,#153,#87,.T.);
#188=EDGE_CURVE('',#151,#154,#88,.T.);
#189=EDGE_CURVE('',#155,#153,#89,.T.);
#190=EDGE_CURVE('',#154,#155,#90,.T.);
#191=EDGE_CURVE('',#154,#156,#91,.T.);
#192=EDGE_CURVE('',#157,#155,#92,.T.);
#193=EDGE_CURVE('',#156,#157,#93,.T.);
#194=EDGE_CURVE('',#156,#150,#94,.T.);
#195=EDGE_CURVE('',#152,#157,#95,.T.);
#196=EDGE_CURVE('',#158,#158,#18,.T.);
#197=EDGE_CURVE('',#158,#159,#96,.T.);
#198=EDGE_CURVE('',#159,#159,#19,.T.);
#199=ORIENTED_EDGE('',*,*,#160,.F.);
#200=ORIENTED_EDGE('',*,*,#161,.T.);
#201=ORIENTED_EDGE('',*,*,#162,.F.);
#202=ORIENTED_EDGE('',*,*,#163,.F.);
#203=ORIENTED_EDGE('',*,*,#164,.F.);
#204=ORIENTED_EDGE('',*,*,#163,.T.);
#205=ORIENTED_EDGE('',*,*,#165,.F.);
#206=ORIENTED_EDGE('',*,*,#166,.F.);
#207=ORIENTED_EDGE('',*,*,#167,.F.);
#208=ORIENTED_EDGE('',*,*,#166,.T.);
#209=ORIENTED_EDGE('',*,*,#168,.F.);
#210=ORIENTED_EDGE('',*,*,#169,.F.);
#211=ORIENTED_EDGE('',*,*,#170,.F.);
#212=ORIENTED_EDGE('',*,*,#169,.T.);
#213=ORIENTED_EDGE('',*,*,#171,.F.);
#214=ORIENTED_EDGE('',*,*,#161,.F.);
#215=ORIENTED_EDGE('',*,*,#171,.T.);
#216=ORIENTED_EDGE('',*,*,#168,.T.);
#217=ORIENTED_EDGE('',*,*,#165,.T.);
#218=ORIENTED_EDGE('',*,*,#162,.T.);
#219=ORIENTED_EDGE('',*,*,#172,.F.);
#220=ORIENTED_EDGE('',*,*,#173,.T.);
#221=ORIENTED_EDGE('',*,*,#174,.F.);
#222=ORIENTED_EDGE('',*,*,#175,.F.);
#223=ORIENTED_EDGE('',*,*,#176,.F.);
#224=ORIENTED_EDGE('',*,*,#175,.T.);
#225=ORIENTED_EDGE('',*,*,#177,.F.);
#226=ORIENTED_EDGE('',*,*,#178,.F.);
#227=ORIENTED_EDGE('',*,*,#179,.F.);
#228=ORIENTED_EDGE('',*,*,#178,.T.);
#229=ORIENTED_EDGE('',*,*,#180,.F.);
#230=ORIENTED_EDGE('',*,*,#181,.F.);
#231=ORIENTED_EDGE('',*,*,#182,.F.);
#232=ORIENTED_EDGE('',*,*,#181,.T.);
#233=ORIENTED_EDGE('',*,*,#183,.F.);
#234=ORIENTED_EDGE('',*,*,#173,.F.);
#235=ORIENTED_EDGE('',*,*,#183,.T.);
#236=ORIENTED_EDGE('',*,*,#180,.T.);
#237=ORIENTED_EDGE('',*,*,#177,.T.);
#238=ORIENTED_EDGE('',*,*,#174,.T.);
#239=ORIENTED_EDGE('',*,*,#184,.F.);
#240=ORIENTED_EDGE('',*,*,#185,.T.);
#241=ORIENTED_EDGE('',*,*,#186,.F.);
#242=ORIENTED_EDGE('',*,*,#187,.F.);
#243=ORIENTED_EDGE('',*,*,#188,.F.);
#244=ORIENTED_EDGE('',*,*,#187,.T.);
#245=ORIENTED_EDGE('',*,*,#189,.F.);
#246=ORIENTED_EDGE('',*,*,#190,.F.);
#247=ORIENTED_EDGE('',*,*,#191,.F.);
#248=ORIENTED_EDGE('',*,*,#190,.T.);
#249=ORIENTED_EDGE('',*,*,#192,.F.);
#250=ORIENTED_EDGE('',*,*,#193,.F.);
#251=ORIENTED_EDGE('',*,*,#194,.F.);
#252=ORIENTED_EDGE('',*,*,#193,.T.);
#253=ORIENTED_EDGE('',*,*,#195,.F.);
#254=ORIENTED_EDGE('',*,*,#185,.F.);
#255=ORIENTED_EDGE('',*,*,#195,.T.);
#256=ORIENTED_EDGE('',*,*,#192,.T.);
#257=ORIENTED_EDGE('',*,*,#189,.T.);
#258=ORIENTED_EDGE('',*,*,#186,.T.);
#259=ORIENTED_EDGE('',*,*,#196,.F.);
#260=ORIENTED_EDGE('',*,*,#197,.T.);
#261=ORIENTED_EDGE('',*,*,#198,.F.);
#262=ORIENTED_EDGE('',*,*,#197,.F.);
#263=ORIENTED_EDGE('',*,*,#198,.T.);
#264=ORIENTED_EDGE('',*,*,#160,.T.);
#265=ORIENTED_EDGE('',*,*,#164,.T.);
#266=ORIENTED_EDGE('',*,*,#167,.T.);
#267=ORIENTED_EDGE('',*,*,#170,.T.);
#268=ORIENTED_EDGE('',*,*,#172,.T.);
#269=ORIENTED_EDGE('',*,*,#176,.T.);
#270=ORIENTED_EDGE('',*,*,#179,.T.);
#271=ORIENTED_EDGE('',*,*,#182,.T.);
#272=ORIENTED_EDGE('',*,*,#184,.T.);
#273=ORIENTED_EDGE('',*,*,#188,.T.);
#274=ORIENTED_EDGE('',*,*,#191,.T.);
#275=ORIENTED_EDGE('',*,*,#194,.T.);
#276=ORIENTED_EDGE('',*,*,#196,.T.);
#277=PLANE('',#326);
#278=PLANE('',#327);
#279=PLANE('',#328);
#280=PLANE('',#329);
#281=PLANE('',#330);
#282=PLANE('',#331);
#283=PLANE('',#332);
#284=PLANE('',#333);
#285=PLANE('',#334);
#286=PLANE('',#335);
#287=PLANE('',#336);
#288=PLANE('',#337);
#289=PLANE('',#338);
#290=PLANE('',#339);
#291=PLANE('',#340);
#292=PLANE('',#344);
#293=PLANE('',#345);
#294=ADVANCED_FACE('',(#21),#277,.T.);
#295=ADVANCED_FACE('',(#22),#278,.T.);
#296=ADVANCED_FACE('',(#23),#279,.T.);
#297=ADVANCED_FACE('',(#24),#280,.T.);
#298=ADVANCED_FACE('',(#25),#281,.T.);
#299=ADVANCED_FACE('',(#26),#282,.T.);
#300=ADVANCED_FACE('',(#27),#283,.T.);
#301=ADVANCED_FACE('',(#28),#284,.T.);
#302=ADVANCED_FACE('',(#29),#285,.T.);
#303=ADVANCED_FACE('',(#30),#286,.T.);
#304=ADVANCED_FACE('',(#31),#287,.T.);
#305=ADVANCED_FACE('',(#32),#288,.T.);
#306=ADVANCED_FACE('',(#33),#289,.T.);
#307=ADVANCED_FACE('',(#34),#290,.T.);
#308=ADVANCED_FACE('',(#35),#291,.T.);
#309=ADVANCED_FACE('',(#36),#20,.T.);
#310=ADVANCED_FACE('',(#37,#15,#16,#17),#292,.T.);
#311=ADVANCED_FACE('',(#38),#293,.F.);
#312=CLOSED_SHELL('',(#294,#295,#296,#297,#298,#299,#300,#301,#302,#303,
#304,#305,#306,#307,#308,#309,#310,#311));
#313=DERIVED_UNIT_ELEMENT(#315,1.);
#314=DERIVED_UNIT_ELEMENT(#514,-3.);
#315=(
MASS_UNIT()
NAMED_UNIT(*)
SI_UNIT(.KILO.,.GRAM.)
);
#316=DERIVED_UNIT((#313,#314));
#317=MEASURE_REPRESENTATION_ITEM('density measure',
POSITIVE_RATIO_MEASURE(7850.),#316);
#318=PROPERTY_DEFINITION_REPRESENTATION(#323,#320);
#319=PROPERTY_DEFINITION_REPRESENTATION(#324,#321);
#320=REPRESENTATION('material name',(#322),#511);
#321=REPRESENTATION('density',(#317),#511);
#322=DESCRIPTIVE_REPRESENTATION_ITEM('Steel','Steel');
#323=PROPERTY_DEFINITION('material property','material name',#521);
#324=PROPERTY_DEFINITION('material property','density of part',#521);
#325=AXIS2_PLACEMENT_3D('',#425,#346,#347);
#326=AXIS2_PLACEMENT_3D('',#426,#348,#349);
#327=AXIS2_PLACEMENT_3D('',#435,#354,#355);
#328=AXIS2_PLACEMENT_3D('',#441,#359,#360);
#329=AXIS2_PLACEMENT_3D('',#447,#364,#365);
#330=AXIS2_PLACEMENT_3D('',#450,#368,#369);
#331=AXIS2_PLACEMENT_3D('',#451,#370,#371);
#332=AXIS2_PLACEMENT_3D('',#460,#376,#377);
#333=AXIS2_PLACEMENT_3D('',#466,#381,#382);
#334=AXIS2_PLACEMENT_3D('',#472,#386,#387);
#335=AXIS2_PLACEMENT_3D('',#475,#390,#391);
#336=AXIS2_PLACEMENT_3D('',#476,#392,#393);
#337=AXIS2_PLACEMENT_3D('',#485,#398,#399);
#338=AXIS2_PLACEMENT_3D('',#491,#403,#404);
#339=AXIS2_PLACEMENT_3D('',#497,#408,#409);
#340=AXIS2_PLACEMENT_3D('',#500,#412,#413);
#341=AXIS2_PLACEMENT_3D('',#501,#414,#415);
#342=AXIS2_PLACEMENT_3D('',#503,#416,#417);
#343=AXIS2_PLACEMENT_3D('',#506,#419,#420);
#344=AXIS2_PLACEMENT_3D('',#507,#421,#422);
#345=AXIS2_PLACEMENT_3D('',#508,#423,#424);
#346=DIRECTION('axis',(0.,0.,1.));
#347=DIRECTION('refdir',(1.,0.,0.));
#348=DIRECTION('center_axis',(-0.5,-0.866025403784438,0.));
#349=DIRECTION('ref_axis',(0.866025403784438,-0.5,0.));
#350=DIRECTION('',(-0.866025403784438,0.5,0.));
#351=DIRECTION('',(0.,0.,1.));
#352=DIRECTION('',(0.866025403784438,-0.5,0.));
#353=DIRECTION('',(0.,0.,1.));
#354=DIRECTION('center_axis',(-0.866025403784438,0.5,0.));
#355=DIRECTION('ref_axis',(-0.5,-0.866025403784438,0.));
#356=DIRECTION('',(0.5,0.866025403784438,0.));
#357=DIRECTION('',(-0.5,-0.866025403784438,0.));
#358=DIRECTION('',(0.,0.,1.));
#359=DIRECTION('center_axis',(0.5,0.866025403784438,0.));
#360=DIRECTION('ref_axis',(-0.866025403784438,0.5,0.));
#361=DIRECTION('',(0.866025403784438,-0.5,0.));
#362=DIRECTION('',(-0.866025403784438,0.5,0.));
#363=DIRECTION('',(0.,0.,1.));
#364=DIRECTION('center_axis',(0.866025403784438,-0.5,0.));
#365=DIRECTION('ref_axis',(0.5,0.866025403784438,0.));
#366=DIRECTION('',(-0.5,-0.866025403784438,0.));
#367=DIRECTION('',(0.5,0.866025403784438,0.));
#368=DIRECTION('center_axis',(0.,0.,1.));
#369=DIRECTION('ref_axis',(-0.5,-0.866025403784438,0.));
#370=DIRECTION('center_axis',(-0.5,0.866025403784439,0.));
#371=DIRECTION('ref_axis',(-0.866025403784439,-0.5,0.));
#372=DIRECTION('',(0.866025403784439,0.5,0.));
#373=DIRECTION('',(0.,0.,1.));
#374=DIRECTION('',(-0.866025403784439,-0.5,0.));
#375=DIRECTION('',(0.,0.,1.));
#376=DIRECTION('center_axis',(0.866025403784439,0.5,0.));
#377=DIRECTION('ref_axis',(-0.5,0.866025403784439,0.));
#378=DIRECTION('',(0.5,-0.866025403784439,0.));
#379=DIRECTION('',(-0.5,0.866025403784439,0.));
#380=DIRECTION('',(0.,0.,1.));
#381=DIRECTION('center_axis',(0.5,-0.866025403784439,0.));
#382=DIRECTION('ref_axis',(0.866025403784439,0.5,0.));
#383=DIRECTION('',(-0.866025403784439,-0.5,0.));
#384=DIRECTION('',(0.866025403784439,0.5,0.));
#385=DIRECTION('',(0.,0.,1.));
#386=DIRECTION('center_axis',(-0.866025403784439,-0.5,0.));
#387=DIRECTION('ref_axis',(0.5,-0.866025403784439,0.));
#388=DIRECTION('',(-0.5,0.866025403784439,0.));
#389=DIRECTION('',(0.5,-0.866025403784439,0.));
#390=DIRECTION('center_axis',(0.,0.,1.));
#391=DIRECTION('ref_axis',(-0.5,0.866025403784439,0.));
#392=DIRECTION('center_axis',(1.,0.,0.));
#393=DIRECTION('ref_axis',(0.,1.,0.));
#394=DIRECTION('',(0.,-1.,0.));
#395=DIRECTION('',(0.,0.,1.));
#396=DIRECTION('',(0.,1.,0.));
#397=DIRECTION('',(0.,0.,1.));
#398=DIRECTION('center_axis',(0.,-1.,0.));
#399=DIRECTION('ref_axis',(1.,0.,0.));
#400=DIRECTION('',(-1.,0.,0.));
#401=DIRECTION('',(1.,0.,0.));
#402=DIRECTION('',(0.,0.,1.));
#403=DIRECTION('center_axis',(-1.,0.,0.));
#404=DIRECTION('ref_axis',(0.,-1.,0.));
#405=DIRECTION('',(0.,1.,0.));
#406=DIRECTION('',(0.,-1.,0.));
#407=DIRECTION('',(0.,0.,1.));
#408=DIRECTION('center_axis',(0.,1.,0.));
#409=DIRECTION('ref_axis',(-1.,0.,0.));
#410=DIRECTION('',(1.,0.,0.));
#411=DIRECTION('',(-1.,0.,0.));
#412=DIRECTION('center_axis',(0.,0.,1.));
#413=DIRECTION('ref_axis',(1.,0.,0.));
#414=DIRECTION('center_axis',(0.,0.,-1.));
#415=DIRECTION('ref_axis',(1.,0.,0.));
#416=DIRECTION('center_axis',(0.,0.,-1.));
#417=DIRECTION('ref_axis',(1.,0.,0.));
#418=DIRECTION('',(0.,0.,1.));
#419=DIRECTION('center_axis',(0.,0.,1.));
#420=DIRECTION('ref_axis',(1.,0.,0.));
#421=DIRECTION('center_axis',(0.,0.,1.));
#422=DIRECTION('ref_axis',(1.,0.,0.));
#423=DIRECTION('center_axis',(0.,0.,1.));
#424=DIRECTION('ref_axis',(1.,0.,0.));
#425=CARTESIAN_POINT('',(0.,0.,0.));
#426=CARTESIAN_POINT('Origin',(-19.255960043842,-20.7523011444505,0.));
#427=CARTESIAN_POINT('',(-8.34403995615806,-27.0523011444505,0.));
#428=CARTESIAN_POINT('',(-19.255960043842,-20.7523011444505,0.));
#429=CARTESIAN_POINT('',(-16.527980021921,-22.3273011444505,0.));
#430=CARTESIAN_POINT('',(-8.34403995615806,-27.0523011444505,80.));
#431=CARTESIAN_POINT('',(-8.34403995615806,-27.0523011444505,0.));
#432=CARTESIAN_POINT('',(-19.255960043842,-20.7523011444505,80.));
#433=CARTESIAN_POINT('',(-8.34403995615806,-27.0523011444505,80.));
#434=CARTESIAN_POINT('',(-19.255960043842,-20.7523011444505,0.));
#435=CARTESIAN_POINT('Origin',(-12.955960043842,-9.84038105676657,0.));
#436=CARTESIAN_POINT('',(-12.955960043842,-9.84038105676657,0.));
#437=CARTESIAN_POINT('',(-9.20596004384197,-3.34519052838329,0.));
#438=CARTESIAN_POINT('',(-12.955960043842,-9.84038105676657,80.));
#439=CARTESIAN_POINT('',(-19.255960043842,-20.7523011444505,80.));
#440=CARTESIAN_POINT('',(-12.955960043842,-9.84038105676657,0.));
#441=CARTESIAN_POINT('Origin',(-2.04403995615805,-16.1403810567666,0.));
#442=CARTESIAN_POINT('',(-2.04403995615805,-16.1403810567666,0.));
#443=CARTESIAN_POINT('',(-4.77201997807903,-14.5653810567666,0.));
#444=CARTESIAN_POINT('',(-2.04403995615805,-16.1403810567666,80.));
#445=CARTESIAN_POINT('',(-12.955960043842,-9.84038105676657,80.));
#446=CARTESIAN_POINT('',(-2.04403995615805,-16.1403810567666,0.));
#447=CARTESIAN_POINT('Origin',(-8.34403995615806,-27.0523011444505,0.));
#448=CARTESIAN_POINT('',(-1.44403995615805,-15.1011505722253,0.));
#449=CARTESIAN_POINT('',(-2.04403995615805,-16.1403810567666,80.));
#450=CARTESIAN_POINT('Origin',(-10.65,-18.4463411006085,80.));
#451=CARTESIAN_POINT('Origin',(-8.34403995615803,27.0523011444505,0.));
#452=CARTESIAN_POINT('',(-19.255960043842,20.7523011444505,0.));
#453=CARTESIAN_POINT('',(-8.34403995615803,27.0523011444505,0.));
#454=CARTESIAN_POINT('',(-11.072019978079,25.4773011444505,0.));
#455=CARTESIAN_POINT('',(-19.255960043842,20.7523011444505,80.));
#456=CARTESIAN_POINT('',(-19.255960043842,20.7523011444505,0.));
#457=CARTESIAN_POINT('',(-8.34403995615803,27.0523011444505,80.));
#458=CARTESIAN_POINT('',(-19.255960043842,20.7523011444505,80.));
#459=CARTESIAN_POINT('',(-8.34403995615803,27.0523011444505,0.));
#460=CARTESIAN_POINT('Origin',(-2.04403995615803,16.1403810567666,0.));
#461=CARTESIAN_POINT('',(-2.04403995615803,16.1403810567666,0.));
#462=CARTESIAN_POINT('',(1.70596004384197,9.64519052838329,0.));
#463=CARTESIAN_POINT('',(-2.04403995615803,16.1403810567666,80.));
#464=CARTESIAN_POINT('',(-8.34403995615803,27.0523011444505,80.));
#465=CARTESIAN_POINT('',(-2.04403995615803,16.1403810567666,0.));
#466=CARTESIAN_POINT('Origin',(-12.955960043842,9.84038105676659,0.));
#467=CARTESIAN_POINT('',(-12.955960043842,9.84038105676659,0.));
#468=CARTESIAN_POINT('',(-10.227980021921,11.4153810567666,0.));
#469=CARTESIAN_POINT('',(-12.955960043842,9.84038105676659,80.));
#470=CARTESIAN_POINT('',(-2.04403995615803,16.1403810567666,80.));
#471=CARTESIAN_POINT('',(-12.955960043842,9.84038105676659,0.));
#472=CARTESIAN_POINT('Origin',(-19.255960043842,20.7523011444505,0.));
#473=CARTESIAN_POINT('',(-12.355960043842,8.80115057222526,0.));
#474=CARTESIAN_POINT('',(-12.955960043842,9.84038105676659,80.));
#475=CARTESIAN_POINT('Origin',(-10.65,18.4463411006086,80.));
#476=CARTESIAN_POINT('Origin',(27.6,-6.3,0.));
#477=CARTESIAN_POINT('',(27.6,6.3,0.));
#478=CARTESIAN_POINT('',(27.6,-6.3,0.));
#479=CARTESIAN_POINT('',(27.6,-3.15,0.));
#480=CARTESIAN_POINT('',(27.6,6.3,80.));
#481=CARTESIAN_POINT('',(27.6,6.3,0.));
#482=CARTESIAN_POINT('',(27.6,-6.3,80.));
#483=CARTESIAN_POINT('',(27.6,6.3,80.));
#484=CARTESIAN_POINT('',(27.6,-6.3,0.));
#485=CARTESIAN_POINT('Origin',(15.,-6.3,0.));
#486=CARTESIAN_POINT('',(15.,-6.3,0.));
#487=CARTESIAN_POINT('',(7.5,-6.3,0.));
#488=CARTESIAN_POINT('',(15.,-6.3,80.));
#489=CARTESIAN_POINT('',(27.6,-6.3,80.));
#490=CARTESIAN_POINT('',(15.,-6.3,0.));
#491=CARTESIAN_POINT('Origin',(15.,6.3,0.));
#492=CARTESIAN_POINT('',(15.,6.3,0.));
#493=CARTESIAN_POINT('',(15.,3.15,0.));
#494=CARTESIAN_POINT('',(15.,6.3,80.));
#495=CARTESIAN_POINT('',(15.,-6.3,80.));
#496=CARTESIAN_POINT('',(15.,6.3,0.));
#497=CARTESIAN_POINT('Origin',(27.6,6.3,0.));
#498=CARTESIAN_POINT('',(13.8,6.3,0.));
#499=CARTESIAN_POINT('',(15.,6.3,80.));
#500=CARTESIAN_POINT('Origin',(21.3,-3.33066907387547E-15,80.));
#501=CARTESIAN_POINT('Origin',(0.,0.,0.));
#502=CARTESIAN_POINT('',(-37.5,-4.59242549680258E-15,-5.));
#503=CARTESIAN_POINT('Origin',(0.,0.,-5.));
#504=CARTESIAN_POINT('',(-37.5,-4.59242549680258E-15,0.));
#505=CARTESIAN_POINT('',(-37.5,4.59242549680258E-15,0.));
#506=CARTESIAN_POINT('Origin',(0.,0.,0.));
#507=CARTESIAN_POINT('Origin',(0.,0.,0.));
#508=CARTESIAN_POINT('Origin',(0.,0.,-5.));
#509=UNCERTAINTY_MEASURE_WITH_UNIT(LENGTH_MEASURE(0.01),#513,
'DISTANCE_ACCURACY_VALUE',
'Maximum model space distance between geometric entities at asserted c
onnectivities');
#510=UNCERTAINTY_MEASURE_WITH_UNIT(LENGTH_MEASURE(0.01),#513,
'DISTANCE_ACCURACY_VALUE',
'Maximum model space distance between geometric entities at asserted c
onnectivities');
#511=(
GEOMETRIC_REPRESENTATION_CONTEXT(3)
GLOBAL_UNCERTAINTY_ASSIGNED_CONTEXT((#509))
GLOBAL_UNIT_ASSIGNED_CONTEXT((#513,#515,#516))
REPRESENTATION_CONTEXT('','3D')
);
#512=(
GEOMETRIC_REPRESENTATION_CONTEXT(3)
GLOBAL_UNCERTAINTY_ASSIGNED_CONTEXT((#510))
GLOBAL_UNIT_ASSIGNED_CONTEXT((#513,#515,#516))
REPRESENTATION_CONTEXT('','3D')
);
#513=(
LENGTH_UNIT()
NAMED_UNIT(*)
SI_UNIT(.MILLI.,.METRE.)
);
#514=(
LENGTH_UNIT()
NAMED_UNIT(*)
SI_UNIT($,.METRE.)
);
#515=(
NAMED_UNIT(*)
PLANE_ANGLE_UNIT()
SI_UNIT($,.RADIAN.)
);
#516=(
NAMED_UNIT(*)
SI_UNIT($,.STERADIAN.)
SOLID_ANGLE_UNIT()
);
#517=SHAPE_DEFINITION_REPRESENTATION(#518,#519);
#518=PRODUCT_DEFINITION_SHAPE('',$,#521);
#519=SHAPE_REPRESENTATION('',(#325),#511);
#520=PRODUCT_DEFINITION_CONTEXT('part definition',#525,'design');
#521=PRODUCT_DEFINITION('2025-12-08-19-10-47-525','(Unsaved)',#522,#520);
#522=PRODUCT_DEFINITION_FORMATION('',$,#527);
#523=PRODUCT_RELATED_PRODUCT_CATEGORY('(Unsaved)','(Unsaved)',(#527));
#524=APPLICATION_PROTOCOL_DEFINITION('international standard',
'automotive_design',2009,#525);
#525=APPLICATION_CONTEXT(
'Core Data for Automotive Mechanical Design Process');
#526=PRODUCT_CONTEXT('part definition',#525,'mechanical');
#527=PRODUCT('2025-12-08-19-10-47-525','(Unsaved)',$,(#526));
#528=PRESENTATION_STYLE_ASSIGNMENT((#529));
#529=SURFACE_STYLE_USAGE(.BOTH.,#530);
#530=SURFACE_SIDE_STYLE('',(#531));
#531=SURFACE_STYLE_FILL_AREA(#532);
#532=FILL_AREA_STYLE('Steel - Satin',(#533));
#533=FILL_AREA_STYLE_COLOUR('Steel - Satin',#534);
#534=COLOUR_RGB('Steel - Satin',0.627450980392157,0.627450980392157,0.627450980392157);
ENDSEC;
END-ISO-10303-21;
